<?xml version="1.0" encoding="UTF-8" standalone="no"?>
<!-- Created with Inkscape (http://www.inkscape.org/) -->

<svg
   version="1.1"
   id="svg48"
   width="139.66776"
   height="162.00273"
   viewBox="0 0 139.66776 162.00273"
   sodipodi:docname="script_reference_glyhps.svg"
   inkscape:version="1.2.2 (b0a8486541, 2022-12-01)"
   xml:space="preserve"
   xmlns:inkscape="http://www.inkscape.org/namespaces/inkscape"
   xmlns:sodipodi="http://sodipodi.sourceforge.net/DTD/sodipodi-0.dtd"
   xmlns="http://www.w3.org/2000/svg"
   xmlns:svg="http://www.w3.org/2000/svg"><defs
     id="defs52" /><sodipodi:namedview
     id="namedview50"
     pagecolor="#505050"
     bordercolor="#eeeeee"
     borderopacity="1"
     inkscape:showpageshadow="0"
     inkscape:pageopacity="0"
     inkscape:pagecheckerboard="0"
     inkscape:deskcolor="#505050"
     showgrid="false"
     inkscape:zoom="0.36018252"
     inkscape:cx="669.10521"
     inkscape:cy="664.94066"
     inkscape:window-width="1920"
     inkscape:window-height="1010"
     inkscape:window-x="0"
     inkscape:window-y="0"
     inkscape:window-maximized="1"
     inkscape:current-layer="g54" /><g
     inkscape:groupmode="layer"
     inkscape:label="Image"
     id="g54"
     transform="translate(-57.333333,-17.491682)"><path
       id="a"
       style="fill:#000000;stroke-width:1.33333"
       d="m 155.65912,169.57784 c -7.71069,-5.78676 -17.23837,-14.18838 -21.17261,-18.67028 -3.93425,-4.4819 -10.93407,-12.4209 -15.55516,-17.64223 l -8.40198,-9.49332 1.56524,-1.88601 c 2.01211,-2.42444 3.35891,-2.37804 6.23872,0.21493 1.28334,1.15551 9.4343,6.97148 18.11327,12.92438 l 15.77992,10.82347 3.99932,5.8128 c 4.89213,7.11046 14.93507,26.95529 14.07607,27.81429 -0.34283,0.34284 -6.93208,-4.11128 -14.64279,-9.89803 z m -98.325787,0.99403 c 0,-5.35955 13.945694,-25.07367 23.010068,-32.52781 20.652609,-16.98384 23.923979,-19.37739 26.483899,-19.37739 h 2.72353 l -3.07672,5 c -1.69219,2.75 -7.480049,11.3 -12.861907,19 l -9.785196,14 -9.58017,6.06345 C 68.977743,166.06502 63.016667,169.50215 61,170.3682 l -3.666667,1.57463 z m 46.311137,-54.9052 C 102.43528,114.75 98.17932,104.7 94.186792,93.333335 90.194265,81.966668 83.251949,62.233649 78.759423,49.482181 74.266897,36.730714 70.824496,26.064393 71.109643,25.779247 c 0.285146,-0.285147 4.89224,8.047872 10.237986,18.517819 16.802879,32.909393 25.575061,49.667525 26.552701,50.725565 0.51971,0.562446 6.10058,-5.437555 12.40192,-13.333333 14.45023,-18.106565 28.6613,-33.48877 37.86728,-40.987909 l 7.15147,-5.82555 -3.66049,-0.757369 C 159.64723,33.701917 143.6,31.20939 126,28.579522 87.676021,22.852986 66.677637,19.145031 65.519097,17.899635 65.050261,17.395648 70.366667,17.352632 77.333333,17.804046 84.3,18.255458 112.5,19.571922 140,20.729519 c 27.5,1.157599 51.33345,2.646615 52.96321,3.308925 6.60168,2.682809 4.79007,11.938954 -3.11653,15.923445 -17.92732,9.034384 -33.94236,23.680546 -61.24157,56.006994 -18.58117,22.002957 -20.21697,23.293857 -24.96064,19.697787 z" /></g></svg>
