<?xml version="1.0" encoding="UTF-8" standalone="no"?>
<!-- Created with Inkscape (http://www.inkscape.org/) -->

<svg
   version="1.1"
   id="svg48"
   width="81.904579"
   height="187.67247"
   viewBox="0 0 81.904579 187.67246"
   sodipodi:docname="script_reference_glyhps.svg"
   inkscape:version="1.2.2 (b0a8486541, 2022-12-01)"
   xml:space="preserve"
   xmlns:inkscape="http://www.inkscape.org/namespaces/inkscape"
   xmlns:sodipodi="http://sodipodi.sourceforge.net/DTD/sodipodi-0.dtd"
   xmlns="http://www.w3.org/2000/svg"
   xmlns:svg="http://www.w3.org/2000/svg"><defs
     id="defs52" /><sodipodi:namedview
     id="namedview50"
     pagecolor="#505050"
     bordercolor="#eeeeee"
     borderopacity="1"
     inkscape:showpageshadow="0"
     inkscape:pageopacity="0"
     inkscape:pagecheckerboard="0"
     inkscape:deskcolor="#505050"
     showgrid="false"
     inkscape:zoom="0.36018252"
     inkscape:cx="669.10521"
     inkscape:cy="664.94066"
     inkscape:window-width="1920"
     inkscape:window-height="1010"
     inkscape:window-x="0"
     inkscape:window-y="0"
     inkscape:window-maximized="1"
     inkscape:current-layer="g54" /><g
     inkscape:groupmode="layer"
     inkscape:label="Image"
     id="g54"
     transform="translate(-289.65633,-4.8208748)"><path
       id="path1269"
       style="fill:#000000;stroke-width:1.33333"
       d="m 329.1546,186.76905 c -0.8981,-3.9707 -1.9478,-20.7398 -2.3327,-37.2646 l -0.7,-30.0452 -4.1852,0.4886 c -7.4182,0.8661 -8.5295,-1.9194 -9.0268,-22.6244 -0.2407,-10.0243 -0.8351,-18.6217 -1.3208,-19.1053 -0.4858,-0.4837 -5.4669,2.8369 -11.0693,7.3791 -5.6023,4.5421 -10.4823,7.962 -10.8445,7.5999 -0.3621,-0.3622 4.5028,-6.8811 10.811,-14.4864 l 11.4695,-13.8278 -0.8918,-30.6667 c -0.6125,-21.060102 -0.461,-30.2490016 0.4835,-29.3333016 1.1121,1.0781 8.2581,41.9374016 8.2581,47.2182016 0,2.5909 2.042,1.5317 4.2766,-2.2182 3.9223,-6.5823 7.6697,-9.6667 11.7446,-9.6667 6.8514,0 8.0609,3.732 6.7039,20.6863 -0.6447,8.0544 -0.9915,14.8251 -0.7708,15.0458 0.2208,0.2208 6.8413,-6.8587 14.7123,-15.7321 20.8185,-23.4699 20.4794,-21.8839 -3.4214,16 l -13.0386,20.6667 -0.7817,13.3333 c -0.43,7.3333 -1.108,19.0333 -1.5068,26 -1.2031,21.0189 -4.5923,53.5835 -5.8016,55.7444 -0.8151,1.4566 -1.5947,-0.01 -2.7675,-5.1916 z m -1.349,-107.8861 c 0,-14.352 -0.7062,-16.6355 -3.9397,-12.7394 -1.2446,1.4996 -1.2297,4.7538 0.067,14.6667 0.9167,7.0066 2.163,12.7393 2.7696,12.7393 0.6066,0 1.1029,-6.6 1.1029,-14.6666 z" /></g></svg>
