<?xml version="1.0" encoding="UTF-8" standalone="no"?>
<!-- Created with Inkscape (http://www.inkscape.org/) -->

<svg
   version="1.1"
   id="svg48"
   width="155.04192"
   height="123.96273"
   viewBox="0 0 155.04192 123.96273"
   sodipodi:docname="script_reference_glyhps.svg"
   inkscape:version="1.2.2 (b0a8486541, 2022-12-01)"
   xml:space="preserve"
   xmlns:inkscape="http://www.inkscape.org/namespaces/inkscape"
   xmlns:sodipodi="http://sodipodi.sourceforge.net/DTD/sodipodi-0.dtd"
   xmlns="http://www.w3.org/2000/svg"
   xmlns:svg="http://www.w3.org/2000/svg"><defs
     id="defs52" /><sodipodi:namedview
     id="namedview50"
     pagecolor="#505050"
     bordercolor="#eeeeee"
     borderopacity="1"
     inkscape:showpageshadow="0"
     inkscape:pageopacity="0"
     inkscape:pagecheckerboard="0"
     inkscape:deskcolor="#505050"
     showgrid="false"
     inkscape:zoom="0.36018252"
     inkscape:cx="669.10521"
     inkscape:cy="664.94066"
     inkscape:window-width="1920"
     inkscape:window-height="1010"
     inkscape:window-x="0"
     inkscape:window-y="0"
     inkscape:window-maximized="1"
     inkscape:current-layer="g54" /><g
     inkscape:groupmode="layer"
     inkscape:label="Image"
     id="g54"
     transform="translate(-453.39282,-25.333334)"><path
       id="path830"
       style="fill:#000000;stroke-width:1.33333"
       d="m 591.33537,144.71603 c -11.62245,-6.05804 -20.75141,-12.658 -49.89382,-36.07171 -13.29791,-10.683871 -24.75363,-19.06948 -25.45714,-18.634688 -0.7035,0.434791 -7.35328,7.695009 -14.77728,16.133818 -7.424,8.43881 -13.79036,15.05111 -14.14746,14.694 -0.65864,-0.65865 21.33796,-44.103417 23.88233,-47.169202 0.76148,-0.917536 3.16568,-1.668247 5.34264,-1.668247 h 3.95812 l 4.96811,4.333334 c 2.73246,2.383333 16.92784,14.768452 31.54529,27.522485 C 583.87076,127.5139 604,146.45115 604,148.30206 c 0,2.0645 -3.99323,0.93381 -12.66463,-3.58603 z m 9.259,-28.79974 c -3.6269,-2.24605 -21.70428,-19.408155 -40.17193,-38.138023 l -33.57756,-34.054303 -2.88613,2.021532 c -1.58739,1.111842 -14.97748,13.392784 -29.75579,27.29098 -14.77829,13.898196 -29.75612,27.750614 -33.28405,30.783154 -6.3761,5.48076 -9.06132,7.03371 -6.65198,3.84704 5.40747,-7.15204 20.44132,-25.491932 30.8767,-37.666669 6.91421,-8.066666 17.96896,-21.416667 24.56612,-29.666667 l 11.99482,-15 h 4.98752 4.98752 l 5.48031,7.258615 c 10.01392,13.263348 60.47487,74.639511 66.65628,81.074721 7.04411,7.33332 6.07735,8.00834 -3.22183,2.24962 z" /></g></svg>
