<?xml version="1.0" encoding="UTF-8" standalone="no"?>
<!-- Created with Inkscape (http://www.inkscape.org/) -->

<svg
   version="1.1"
   id="svg48"
   width="134.5858"
   height="148.95697"
   viewBox="0 0 134.5858 148.95697"
   sodipodi:docname="script_reference_glyhps.svg"
   inkscape:version="1.2.2 (b0a8486541, 2022-12-01)"
   xml:space="preserve"
   xmlns:inkscape="http://www.inkscape.org/namespaces/inkscape"
   xmlns:sodipodi="http://sodipodi.sourceforge.net/DTD/sodipodi-0.dtd"
   xmlns="http://www.w3.org/2000/svg"
   xmlns:svg="http://www.w3.org/2000/svg"><defs
     id="defs52" /><sodipodi:namedview
     id="namedview50"
     pagecolor="#505050"
     bordercolor="#eeeeee"
     borderopacity="1"
     inkscape:showpageshadow="0"
     inkscape:pageopacity="0"
     inkscape:pagecheckerboard="0"
     inkscape:deskcolor="#505050"
     showgrid="false"
     inkscape:zoom="0.36018252"
     inkscape:cx="669.10521"
     inkscape:cy="664.94066"
     inkscape:window-width="1920"
     inkscape:window-height="1010"
     inkscape:window-x="0"
     inkscape:window-y="0"
     inkscape:window-maximized="1"
     inkscape:current-layer="g54" /><g
     inkscape:groupmode="layer"
     inkscape:label="Image"
     id="g54"
     transform="translate(-695.32013,-17.362596)"><path
       id="path1281"
       style="fill:#000000;stroke-width:1.33333"
       d="m 695.32017,165.52056 c -0.03,-2.2612 18.5467,-19.327 40.6124,-37.3088 17.1015,-13.9364 19.351,-16.2284 18.8078,-19.163 -0.3394,-1.8334 -0.9785,-13.833397 -1.4202,-26.666697 -1.202,-34.919298 -0.4784,-32.517998 -12.8412,-42.612098 -17.8832,-14.6014 -19.5979,-17.4009 -5.1792,-8.4557 6.9667,4.3221 13.4777,8.3536 14.4689,8.9589 1.4736,0.8999 1.7167,-1.0321 1.3333,-10.5962 -0.3411,-8.5093 -0.015,-11.854 1.1978,-12.2736 1.2571,-0.4351 1.6667,2.5464 1.6667,12.1331 v 12.7099 l 4.3333,3.2888 c 5.9081,4.484 51.8417,33.953698 61.3412,39.354798 10.6635,6.0629 12.7222,10.4167 7.5503,15.968097 -2.5862,2.7759 -3.5174,2.9186 -13.6685,2.095 -9.9142,-0.8045 -11.672,-0.5613 -19.5581,2.7058 -4.7657,1.9743 -14.8149,6.9826 -22.3316,11.1296 l -13.6666,7.54 -0.1961,16.6935 -0.1961,16.6934 -1.0128,-15.0978 c -0.5571,-8.3038 -1.2773,-15.3622 -1.6004,-15.6853 -0.3232,-0.3232 -2.0291,0.4928 -3.7911,1.8131 -1.7619,1.3204 -14.6035,9.8594 -28.5369,18.9755 -13.9333,9.1161 -25.7741,17.1942 -26.3129,17.9513 -0.6486,0.9114 -0.9865,0.8602 -1,-0.1516 z m 73.6388,-63.3361 c 6.0541,-4.508697 14.7575,-9.965297 19.3408,-12.125697 4.5833,-2.1604 8.3333,-4.1514 8.3333,-4.4244 0,-0.703 -39.735,-32.585598 -40.6111,-32.585598 -0.3972,0 -0.7222,4.7051 -0.7222,10.4558 0,13.027598 1.5881,46.877495 2.1992,46.877495 0.2489,0 5.4059,-3.6889 11.46,-8.1976 z m -10.8873,60.7532 c 0.064,-1.5533 0.38,-1.8692 0.8056,-0.8056 0.3851,0.9625 0.3378,2.1125 -0.1052,2.5556 -0.4431,0.443 -0.7582,-0.3445 -0.7003,-1.75 z" /></g></svg>
