<?xml version="1.0" encoding="UTF-8" standalone="no"?>
<!-- Created with Inkscape (http://www.inkscape.org/) -->

<svg
   version="1.1"
   id="svg48"
   width="163.98988"
   height="122.80109"
   viewBox="0 0 163.98988 122.80108"
   sodipodi:docname="script_reference_glyhps.svg"
   inkscape:version="1.2.2 (b0a8486541, 2022-12-01)"
   xml:space="preserve"
   xmlns:inkscape="http://www.inkscape.org/namespaces/inkscape"
   xmlns:sodipodi="http://sodipodi.sourceforge.net/DTD/sodipodi-0.dtd"
   xmlns="http://www.w3.org/2000/svg"
   xmlns:svg="http://www.w3.org/2000/svg"><defs
     id="defs52" /><sodipodi:namedview
     id="namedview50"
     pagecolor="#505050"
     bordercolor="#eeeeee"
     borderopacity="1"
     inkscape:showpageshadow="0"
     inkscape:pageopacity="0"
     inkscape:pagecheckerboard="0"
     inkscape:deskcolor="#505050"
     showgrid="false"
     inkscape:zoom="0.36018252"
     inkscape:cx="669.10521"
     inkscape:cy="664.94066"
     inkscape:window-width="1920"
     inkscape:window-height="1010"
     inkscape:window-x="0"
     inkscape:window-y="0"
     inkscape:window-maximized="1"
     inkscape:current-layer="g54" /><g
     inkscape:groupmode="layer"
     inkscape:label="Image"
     id="g54"
     transform="translate(-920,-19.993093)"><path
       id="path836"
       style="fill:#000000;stroke-width:1.33333"
       d="m 960.48557,140.17594 -4.18109,-2.61824 -11.99465,-21.77885 C 930.72831,91.118695 920,70.044911 920,68.026644 c 0,-3.529843 3.53889,0.449676 21.61537,24.306691 10.69622,14.116665 20.90532,27.024355 22.68692,28.683745 l 3.23927,3.01708 5.77693,-12.35041 c 16.9345,-36.203969 23.74402,-49.853117 25.64659,-51.40651 l 2.11002,-1.722762 -1.24069,5.722762 c -0.68237,3.147519 -5.5638,20.950362 -10.84764,39.56187 l -9.60696,33.83912 -2.88221,1.88849 c -1.58521,1.03867 -4.89568,2.18976 -7.35657,2.55798 l -4.47436,0.66948 z M 1077.7712,113 c -4.2726,-4.53212 -24.8131,-31.70053 -32.3208,-42.750068 -2.398,-3.529205 -6.1113,-10.279205 -8.2518,-15 -2.1405,-4.720795 -4.1676,-8.583264 -4.5046,-8.583264 -0.337,0 -3.7307,4.65 -7.5417,10.333333 -12.628,18.83263 -25.39911,36.530969 -25.95767,35.972409 -0.71403,-0.714027 4.61237,-13.373295 17.80027,-42.305742 5.8497,-12.833334 11.0589,-24.681939 11.576,-26.330236 1.7612,-5.613806 12.2501,-5.84895 15.007,-0.336432 0.9169,1.833334 3.1189,7.833334 4.8934,13.333334 3.6191,11.217452 15.2735,37.945045 27.0348,62.000001 4.3026,8.800005 8.0239,16.450005 8.2696,17.000005 1.1133,2.49304 -2.296,0.60042 -6.0045,-3.33334 z" /></g></svg>
