<?xml version="1.0" encoding="UTF-8" standalone="no"?>
<!-- Created with Inkscape (http://www.inkscape.org/) -->

<svg
   version="1.1"
   id="svg48"
   width="45.597752"
   height="180.267"
   viewBox="0 0 45.597752 180.26699"
   sodipodi:docname="script_reference_glyhps.svg"
   inkscape:version="1.2.2 (b0a8486541, 2022-12-01)"
   xml:space="preserve"
   xmlns:inkscape="http://www.inkscape.org/namespaces/inkscape"
   xmlns:sodipodi="http://sodipodi.sourceforge.net/DTD/sodipodi-0.dtd"
   xmlns="http://www.w3.org/2000/svg"
   xmlns:svg="http://www.w3.org/2000/svg"><defs
     id="defs52" /><sodipodi:namedview
     id="namedview50"
     pagecolor="#505050"
     bordercolor="#eeeeee"
     borderopacity="1"
     inkscape:showpageshadow="0"
     inkscape:pageopacity="0"
     inkscape:pagecheckerboard="0"
     inkscape:deskcolor="#505050"
     showgrid="false"
     inkscape:zoom="1.01875"
     inkscape:cx="555.58281"
     inkscape:cy="918.28219"
     inkscape:window-width="1920"
     inkscape:window-height="1010"
     inkscape:window-x="0"
     inkscape:window-y="0"
     inkscape:window-maximized="1"
     inkscape:current-layer="g54" /><g
     inkscape:groupmode="layer"
     inkscape:label="Image"
     id="g54"
     transform="translate(-479.41683,-787.02452)"><path
       id="path363"
       style="fill:#000000;stroke-width:1.33333"
       d="m 497.36664,913.71393 -2.16919,-3.31059 1.45719,-6.35608 c 2.55605,-11.14916 3.79196,-34.93473 3.17081,-61.02274 l -0.60318,-25.33334 3.96986,-11.33333 c 2.18342,-6.23333 4.41412,-13.13333 4.9571,-15.33333 l 0.98724,-4 0.71857,2 c 0.39522,1.1 1.56166,2.62151 2.59211,3.38113 l 1.87352,1.38112 0.7624,12.77891 0.7624,12.7789 -2.3518,15.17331 c -2.2928,14.79265 -2.81791,30.67519 -2.08562,63.08397 l 0.35951,15.9107 -2.40144,1.75597 c -1.3208,0.96579 -4.07295,1.75599 -6.11588,1.75599 h -3.71441 z m 0.98127,52.77883 c -5.84884,-0.69875 -8.78892,-3.29367 -9.87297,-8.71388 -0.46514,-2.32569 -2.69351,-6.13497 -4.95191,-8.46505 l -4.1062,-4.23654 0.88872,-2.80012 c 0.48888,-1.54036 2.0198,-2.80012 3.4028,-2.80012 1.38275,0 3.99698,-0.67566 5.80941,-1.50145 l 3.29534,-1.50145 10.95228,1.60144 10.95229,1.60144 5.14845,3.25006 5.14846,3.25008 v 4.04528 4.0453 l -4.24935,2.27132 c -2.33713,1.24922 -5.65039,3.6073 -7.36279,5.24017 -3.51073,3.34769 -7.67484,5.80331 -9.30021,5.48443 -0.59821,-0.11734 -3.18765,-0.46427 -5.75432,-0.77091 z" /></g></svg>
