<?xml version="1.0" encoding="UTF-8" standalone="no"?>
<!-- Created with Inkscape (http://www.inkscape.org/) -->

<svg
   version="1.1"
   id="svg48"
   width="109.0799"
   height="123.33334"
   viewBox="0 0 109.0799 123.33333"
   sodipodi:docname="script_reference_glyhps.svg"
   inkscape:version="1.2.2 (b0a8486541, 2022-12-01)"
   xml:space="preserve"
   xmlns:inkscape="http://www.inkscape.org/namespaces/inkscape"
   xmlns:sodipodi="http://sodipodi.sourceforge.net/DTD/sodipodi-0.dtd"
   xmlns="http://www.w3.org/2000/svg"
   xmlns:svg="http://www.w3.org/2000/svg"><defs
     id="defs52" /><sodipodi:namedview
     id="namedview50"
     pagecolor="#505050"
     bordercolor="#eeeeee"
     borderopacity="1"
     inkscape:showpageshadow="0"
     inkscape:pageopacity="0"
     inkscape:pagecheckerboard="0"
     inkscape:deskcolor="#505050"
     showgrid="false"
     inkscape:zoom="0.36018252"
     inkscape:cx="669.10521"
     inkscape:cy="664.94066"
     inkscape:window-width="1920"
     inkscape:window-height="1010"
     inkscape:window-x="0"
     inkscape:window-y="0"
     inkscape:window-maximized="1"
     inkscape:current-layer="g54" /><g
     inkscape:groupmode="layer"
     inkscape:label="Image"
     id="g54"
     transform="translate(-1180.6667,-20.666667)"><path
       style="fill:#000000;stroke-width:1.33333"
       d="m 1229.3372,141.66667 c 0.01,-3.26843 -1.1001,-43.437579 -1.2304,-44.708747 -0.059,-0.573144 -6.4068,-0.634774 -14.1068,-0.136957 -14.7543,0.953885 -16.2994,0.34392 -11,-4.342388 5.2048,-4.602682 10.0964,-7.139414 17.3248,-8.984468 l 7.0085,-1.788944 0.3904,-8.682159 0.3904,-8.682159 -3.0571,-0.818884 c -1.6813,-0.450385 -10.857,-0.886884 -20.3903,-0.969996 -9.5334,-0.08311 -18.8334,-0.607111 -20.6667,-1.164441 l -3.3333,-1.013328 4,-1.663326 c 2.2,-0.914829 12.7,-3.869053 23.3333,-6.564943 l 19.3333,-4.901618 0.6667,-13.288822 0.6667,-13.288823 h 2 2 l 0.3796,12.833052 0.3796,12.833053 4.9537,0.81894 c 2.7246,0.450417 11.2537,0.878108 18.9537,0.950422 7.7,0.07232 17,0.542099 20.6667,1.043963 l 6.6667,0.91248 -6,1.669925 c -3.3,0.918459 -14.6157,3.72099 -25.1461,6.227844 -10.5303,2.506857 -19.53,4.941958 -19.9994,5.411337 -0.4694,0.469378 -0.8537,4.40191 -0.854,8.738958 l -5e-4,7.885543 4.6666,-0.04261 c 2.5667,-0.02344 9.4667,-0.909872 15.3334,-1.969859 5.8666,-1.059988 16.6096,-1.939055 23.8733,-1.953483 l 13.2066,-0.02623 -2.3157,2.558809 c -1.2736,1.407344 -6.4644,4.73893 -11.5352,7.403526 l -9.2195,4.844719 -15.6714,1.982336 c -8.6193,1.090286 -16.4215,2.239867 -17.3381,2.554627 L 1232,95.916309 v 24.041851 c 0,15.139 -0.4937,24.04184 -1.3333,24.04184 -0.7334,0 -1.3316,-1.05 -1.3295,-2.33333 z"
       id="path834" /></g></svg>
