<?xml version="1.0" encoding="UTF-8" standalone="no"?>
<!-- Created with Inkscape (http://www.inkscape.org/) -->

<svg
   version="1.1"
   id="svg48"
   width="129.4767"
   height="101.03185"
   viewBox="0 0 129.4767 101.03185"
   sodipodi:docname="script_reference_glyhps.svg"
   inkscape:version="1.2.2 (b0a8486541, 2022-12-01)"
   xml:space="preserve"
   xmlns:inkscape="http://www.inkscape.org/namespaces/inkscape"
   xmlns:sodipodi="http://sodipodi.sourceforge.net/DTD/sodipodi-0.dtd"
   xmlns="http://www.w3.org/2000/svg"
   xmlns:svg="http://www.w3.org/2000/svg"><defs
     id="defs52" /><sodipodi:namedview
     id="namedview50"
     pagecolor="#505050"
     bordercolor="#eeeeee"
     borderopacity="1"
     inkscape:showpageshadow="0"
     inkscape:pageopacity="0"
     inkscape:pagecheckerboard="0"
     inkscape:deskcolor="#505050"
     showgrid="false"
     inkscape:zoom="0.36018252"
     inkscape:cx="669.10521"
     inkscape:cy="664.94066"
     inkscape:window-width="1920"
     inkscape:window-height="1010"
     inkscape:window-x="0"
     inkscape:window-y="0"
     inkscape:window-maximized="1"
     inkscape:current-layer="g54" /><g
     inkscape:groupmode="layer"
     inkscape:label="Image"
     id="g54"
     transform="translate(-1375.8148,-22)"><path
       id="path838"
       style="fill:#000000;stroke-width:1.33333"
       d="m 1378.8145,119.21842 -2.9997,-3.81342 0.7343,-4.03583 c 0.8342,-4.58501 3.6428,-28.960102 6.8406,-59.369169 1.1954,-11.366667 2.628,-22.766667 3.1836,-25.333334 L 1387.5835,22 l 0.8942,10.000001 c 0.7066,7.90206 3.5223,67.243722 3.5223,74.232859 0,0.88206 2.55,1.93734 5.6667,2.34506 3.1166,0.40772 12.5666,1.63507 21,2.72746 35.2912,4.57132 64.5349,8.78511 65.1353,9.38549 0.3533,0.35336 -17.0653,0.64247 -38.7083,0.64247 -21.6429,0 -44.7346,0.38216 -51.3152,0.84926 l -11.9644,0.84925 z m 120.4836,-22.430285 c -1.0445,-2.49986 -3.4193,-15.24986 -5.2773,-28.333334 -1.8581,-13.083473 -3.6643,-25.058228 -4.0137,-26.610567 l -0.6355,-2.822435 -4.3524,-0.77018 c -53.3552,-9.441278 -74.8377,-13.831655 -69.6859,-14.241692 10.4422,-0.831089 82.923,0.39016 84.8658,1.429927 1.3236,0.708361 3.0108,2.417139 3.7494,3.797285 l 1.343,2.509358 -1.2622,16.536028 c -0.6942,9.094815 -1.3618,24.751854 -1.4837,34.793419 -0.1219,10.041566 -0.4751,18.257396 -0.7849,18.257396 -0.3099,0 -1.418,-2.045345 -2.4626,-4.545205 z" /></g></svg>
