<?xml version="1.0" encoding="UTF-8" standalone="no"?>
<!-- Created with Inkscape (http://www.inkscape.org/) -->

<svg
   version="1.1"
   id="svg48"
   width="133.88322"
   height="129.74544"
   viewBox="0 0 133.88322 129.74543"
   sodipodi:docname="script_reference_glyhps.svg"
   inkscape:version="1.2.2 (b0a8486541, 2022-12-01)"
   xml:space="preserve"
   xmlns:inkscape="http://www.inkscape.org/namespaces/inkscape"
   xmlns:sodipodi="http://sodipodi.sourceforge.net/DTD/sodipodi-0.dtd"
   xmlns="http://www.w3.org/2000/svg"
   xmlns:svg="http://www.w3.org/2000/svg"><defs
     id="defs52" /><sodipodi:namedview
     id="namedview50"
     pagecolor="#505050"
     bordercolor="#eeeeee"
     borderopacity="1"
     inkscape:showpageshadow="0"
     inkscape:pageopacity="0"
     inkscape:pagecheckerboard="0"
     inkscape:deskcolor="#505050"
     showgrid="false"
     inkscape:zoom="0.36018252"
     inkscape:cx="669.10521"
     inkscape:cy="664.94066"
     inkscape:window-width="1920"
     inkscape:window-height="1010"
     inkscape:window-x="0"
     inkscape:window-y="0"
     inkscape:window-maximized="1"
     inkscape:current-layer="g54" /><g
     inkscape:groupmode="layer"
     inkscape:label="Image"
     id="g54"
     transform="translate(-1628.7864,-19.268266)"><path
       style="fill:#000000;stroke-width:1.33333"
       d="m 1703.6333,148.42204 c -1.312,-2.25414 -2.2458,-16.69396 -2.9592,-45.75537 -0.4049,-16.500002 -1.0769,-34.959245 -1.4933,-41.020541 l -0.7569,-11.020537 -9.5454,0.644505 c -5.2498,0.354477 -12.3788,0.663719 -15.8421,0.687204 l -6.2968,0.0427 0.8323,41.796446 0.8322,41.796453 -1.6241,1.00373 c -0.8932,0.55205 -1.9501,0.67763 -2.3488,0.27904 -0.7172,-0.71724 -2.0248,-22.2037 -3.7856,-62.209002 -0.5003,-11.366667 -1.1371,-21.038054 -1.4151,-21.491971 -0.2778,-0.453917 -7.5685,-0.527063 -16.2012,-0.162544 -19.6877,0.831311 -18.7297,-1.208195 1.4148,-3.012152 l 14.8892,-1.333333 -0.4714,-14.137693 -0.4714,-14.137691 2.3071,-0.885313 c 1.2689,-0.486921 3.1311,-0.201493 4.138,0.634285 l 1.8311,1.519596 v 13.342297 13.342296 l 8,-0.838889 16,-1.677776 8,-0.83889 v -9.938889 -9.93889 l 1.6666,0.5511 1.6667,0.551099 0.3944,9.689241 0.3943,9.689241 2.939,-0.728598 c 1.6164,-0.400729 12.839,-1.125449 24.939,-1.610489 l 22,-0.881894 4.5638,3.147929 c 2.5102,1.73136 4.7608,3.747928 5.0015,4.481261 l 0.4376,1.333333 -30.0015,-0.424986 -30.0014,-0.424987 0.1493,21.091654 c 0.083,11.600409 0.5387,33.691655 1.0147,49.091655 0.8885,28.75312 0.8825,29.61053 -0.1974,27.75537 z"
       id="path832" /></g></svg>
