<?xml version="1.0" encoding="UTF-8" standalone="no"?>
<!-- Created with Inkscape (http://www.inkscape.org/) -->

<svg
   version="1.1"
   id="svg48"
   width="122"
   height="158.81805"
   viewBox="0 0 122 158.81805"
   sodipodi:docname="script_reference_glyhps.svg"
   inkscape:version="1.2.2 (b0a8486541, 2022-12-01)"
   xml:space="preserve"
   xmlns:inkscape="http://www.inkscape.org/namespaces/inkscape"
   xmlns:sodipodi="http://sodipodi.sourceforge.net/DTD/sodipodi-0.dtd"
   xmlns="http://www.w3.org/2000/svg"
   xmlns:svg="http://www.w3.org/2000/svg"><defs
     id="defs52" /><sodipodi:namedview
     id="namedview50"
     pagecolor="#505050"
     bordercolor="#eeeeee"
     borderopacity="1"
     inkscape:showpageshadow="0"
     inkscape:pageopacity="0"
     inkscape:pagecheckerboard="0"
     inkscape:deskcolor="#505050"
     showgrid="false"
     inkscape:zoom="0.36018252"
     inkscape:cx="669.10521"
     inkscape:cy="664.94066"
     inkscape:window-width="1920"
     inkscape:window-height="1010"
     inkscape:window-x="0"
     inkscape:window-y="0"
     inkscape:window-maximized="1"
     inkscape:current-layer="g54" /><g
     inkscape:groupmode="layer"
     inkscape:label="Image"
     id="g54"
     transform="translate(-1853.3333,-21.181939)"><path
       id="path816"
       style="fill:#000000;stroke-width:1.33333"
       d="m 1874.9849,136.15566 c -11.9084,-24.1144 -21.6516,-44.514404 -21.6516,-45.333344 0,-0.81894 0.9,-1.488981 2,-1.488981 1.1,0 2,0.546636 2,1.214747 0,1.02732 38.9659,85.366668 40.846,88.408798 0.3547,0.57372 0.1526,1.04312 -0.449,1.04312 -0.6015,0 -10.837,-19.72996 -22.7454,-43.84434 z m 23.081,33.38512 c -1.5766,-4.96715 -2.8267,-54.1083 -1.9218,-75.540778 0.4955,-11.733334 1.3346,-31.533334 1.8648,-44.000001 l 0.9639,-22.666667 1.9273,-3.075698 1.9272,-3.075697 4.7536,0.409031 4.7536,0.40903 13.5726,20.000001 c 26.206,38.616189 42.8009,61.275449 46.0978,62.943439 l 3.3284,1.68392 -3.1154,0.0196 -3.1154,0.0196 -8.7008,-8.33333 c -4.7854,-4.583334 -16.8192,-17.483334 -26.7418,-28.666667 -9.9227,-11.183334 -18.5554,-20.333334 -19.1839,-20.333334 -0.6284,0 -1.1427,0.919085 -1.1427,2.042411 0,7.279346 -4.368,58.73511 -6.1084,71.95759 -2.4338,18.49053 -7.1778,47.73069 -7.8537,48.40652 -0.2536,0.25361 -0.8409,-0.73597 -1.3053,-2.19908 z" /></g></svg>
