<?xml version="1.0" encoding="UTF-8" standalone="no"?>
<!-- Created with Inkscape (http://www.inkscape.org/) -->

<svg
   version="1.1"
   id="svg48"
   width="164.62221"
   height="200.13916"
   viewBox="0 0 164.62221 200.13915"
   sodipodi:docname="script_reference_glyhps.svg"
   inkscape:version="1.2.2 (b0a8486541, 2022-12-01)"
   xml:space="preserve"
   xmlns:inkscape="http://www.inkscape.org/namespaces/inkscape"
   xmlns:sodipodi="http://sodipodi.sourceforge.net/DTD/sodipodi-0.dtd"
   xmlns="http://www.w3.org/2000/svg"
   xmlns:svg="http://www.w3.org/2000/svg"><defs
     id="defs52" /><sodipodi:namedview
     id="namedview50"
     pagecolor="#505050"
     bordercolor="#eeeeee"
     borderopacity="1"
     inkscape:showpageshadow="0"
     inkscape:pageopacity="0"
     inkscape:pagecheckerboard="0"
     inkscape:deskcolor="#505050"
     showgrid="false"
     inkscape:zoom="0.36018252"
     inkscape:cx="669.10521"
     inkscape:cy="664.94066"
     inkscape:window-width="1920"
     inkscape:window-height="1010"
     inkscape:window-x="0"
     inkscape:window-y="0"
     inkscape:window-maximized="1"
     inkscape:current-layer="g54" /><g
     inkscape:groupmode="layer"
     inkscape:label="Image"
     id="g54"
     transform="translate(-2045.4203,-5.3395731)"><path
       id="path808"
       style="fill:#000000;stroke-width:1.33333"
       d="m 2046.9337,203.65516 -1.5134,-1.82357 17.4718,-21.91579 c 9.6096,-12.05369 22.1359,-27.9158 27.8364,-35.24913 12.1892,-15.68073 19.2587,-22.84467 20.5238,-20.79791 2.076,3.35911 -5.8068,14.68814 -31.1704,44.79791 -14.8259,17.6 -28.0087,33.08272 -29.2954,34.40604 l -2.3393,2.40603 z m 69.929,-26.00477 c -0.675,-1.09193 1.099,-43.07781 4.4638,-105.650389 0.7295,-13.566667 1.3295,-25.716667 1.3334,-27 0,-1.283333 0.9837,-2.333334 2.1778,-2.333334 h 2.1712 l -0.9068,17.666668 c -0.4986,9.716666 -1.7977,31.766667 -2.8866,49.000005 -4.5194,71.52064 -4.5002,71.31472 -6.3528,68.31705 z m 17.804,-80.53966 c 0,-4.984226 12.3176,-21.806426 37.008,-50.542085 27.4414,-31.937313 37.053,-42.2935444 38.186,-41.1441744 1.1214,1.1377683 -3.151,11.2427014 -7.1556,16.9241804 -8.5134,12.078024 -50.2335,63.796739 -54.5614,67.637485 -8.5736,7.608637 -13.477,10.200814 -13.477,7.124594 z" /></g></svg>
