<?xml version="1.0" encoding="UTF-8" standalone="no"?>
<!-- Created with Inkscape (http://www.inkscape.org/) -->

<svg
   version="1.1"
   id="svg48"
   width="127.03779"
   height="134.66667"
   viewBox="0 0 127.03779 134.66667"
   sodipodi:docname="script_reference_glyhps.svg"
   inkscape:version="1.2.2 (b0a8486541, 2022-12-01)"
   xml:space="preserve"
   xmlns:inkscape="http://www.inkscape.org/namespaces/inkscape"
   xmlns:sodipodi="http://sodipodi.sourceforge.net/DTD/sodipodi-0.dtd"
   xmlns="http://www.w3.org/2000/svg"
   xmlns:svg="http://www.w3.org/2000/svg"><defs
     id="defs52" /><sodipodi:namedview
     id="namedview50"
     pagecolor="#505050"
     bordercolor="#eeeeee"
     borderopacity="1"
     inkscape:showpageshadow="0"
     inkscape:pageopacity="0"
     inkscape:pagecheckerboard="0"
     inkscape:deskcolor="#505050"
     showgrid="false"
     inkscape:zoom="0.36018252"
     inkscape:cx="669.10521"
     inkscape:cy="664.94066"
     inkscape:window-width="1920"
     inkscape:window-height="1010"
     inkscape:window-x="0"
     inkscape:window-y="0"
     inkscape:window-maximized="1"
     inkscape:current-layer="g54" /><g
     inkscape:groupmode="layer"
     inkscape:label="Image"
     id="g54"
     transform="translate(-56,-293.33334)"><path
       id="path774"
       style="fill:#000000;stroke-width:1.33333"
       d="m 164.55896,424.68942 -2.16919,-3.31059 1.45719,-6.35608 c 2.55604,-11.14916 3.79197,-34.93473 3.17081,-61.02274 l -0.60318,-25.33334 3.96986,-11.33333 c 2.18342,-6.23333 4.41411,-13.13333 4.9571,-15.33333 l 0.98724,-4 0.71857,2 c 0.39523,1.1 1.56167,2.6215 2.59211,3.38113 l 1.87352,1.38112 0.7624,12.77891 0.7624,12.7789 -2.3518,15.17331 c -2.29282,14.79265 -2.8179,30.67519 -2.08562,63.08397 l 0.35951,15.9107 -2.40144,1.75597 c -1.3208,0.9658 -4.07295,1.75599 -6.11588,1.75599 h -3.71441 z m -38.55498,-4.68501 -2.40932,-2.66227 1.55418,-11.10976 c 0.8548,-6.11036 1.94217,-17.89095 2.41638,-26.17908 l 0.86221,-15.06935 -21.21372,16.41298 c -11.667539,9.02714 -22.909745,17.80576 -24.982677,19.50802 -2.072932,1.70228 -4.322932,3.09506 -5,3.09506 -3.639682,0 -0.343306,-3.23031 25.171147,-24.66667 2.61853,-2.2 8.04261,-6.85 12.05351,-10.33333 6.49931,-5.64443 9.16644,-7.02458 12.54431,-6.49123 0.55,0.0868 1,-12.32211 1,-27.57544 v -27.73333 l 1.6,-1.6 c 0.88,-0.88 2.53,-1.60611 3.66667,-1.61356 1.14129,-0.008 3.0671,-2.39555 4.30098,-5.33334 1.22887,-2.92588 2.99887,-5.31977 3.93334,-5.31977 H 143.2 l -1.6,1.6 -1.6,1.6 v 60.97143 60.97142 l -2.09524,2.09524 c -2.90967,2.90967 -9.01779,2.61864 -11.90078,-0.56702 z M 56,386.83783 c 0,-0.6392 3.899999,-7.13748 8.666664,-14.44062 l 8.666665,-13.27846 14.437796,-11.48368 c 7.940788,-6.31601 16.002525,-12.19661 17.914975,-13.06798 3.48443,-1.5876 9.40137,-0.58943 6.9432,1.1713 -0.71278,0.51056 -6.99597,8.5304 -13.962633,17.82188 L 86,370.45387 72.903367,379.22694 C 60.578207,387.48322 56,389.54459 56,386.83783 Z" /></g></svg>
