<?xml version="1.0" encoding="UTF-8" standalone="no"?>
<!-- Created with Inkscape (http://www.inkscape.org/) -->

<svg
   version="1.1"
   id="svg48"
   width="144.48335"
   height="103.99728"
   viewBox="0 0 144.48335 103.99728"
   sodipodi:docname="script_reference_glyhps.svg"
   inkscape:version="1.2.2 (b0a8486541, 2022-12-01)"
   xml:space="preserve"
   xmlns:inkscape="http://www.inkscape.org/namespaces/inkscape"
   xmlns:sodipodi="http://sodipodi.sourceforge.net/DTD/sodipodi-0.dtd"
   xmlns="http://www.w3.org/2000/svg"
   xmlns:svg="http://www.w3.org/2000/svg"><defs
     id="defs52" /><sodipodi:namedview
     id="namedview50"
     pagecolor="#505050"
     bordercolor="#eeeeee"
     borderopacity="1"
     inkscape:showpageshadow="0"
     inkscape:pageopacity="0"
     inkscape:pagecheckerboard="0"
     inkscape:deskcolor="#505050"
     showgrid="false"
     inkscape:zoom="0.36018252"
     inkscape:cx="669.10521"
     inkscape:cy="664.94066"
     inkscape:window-width="1920"
     inkscape:window-height="1010"
     inkscape:window-x="0"
     inkscape:window-y="0"
     inkscape:window-maximized="1"
     inkscape:current-layer="g54" /><g
     inkscape:groupmode="layer"
     inkscape:label="Image"
     id="g54"
     transform="translate(-281.26876,-321.33605)"><path
       id="path778"
       style="fill:#000000;stroke-width:1.33333"
       d="m 422.07845,421.00001 c -0.71961,-4.39788 -4.69324,-73.9101 -5.03328,-88.04886 l -0.18554,-7.71553 2.2051,-2.20511 c 1.21282,-1.21281 2.43987,-1.94082 2.7268,-1.61781 0.28694,0.32303 0.895,13.78731 1.35127,29.92064 0.45627,16.13333 1.23001,39.38333 1.71944,51.66667 l 0.88987,22.33333 h -1.48231 c -0.81527,0 -1.80137,-1.95 -2.19135,-4.33333 z m -38.31654,-6.84028 C 382.79285,413.14758 375.1,402.87879 366.66667,391.34021 L 351.33333,370.36095 322,371.23103 c -16.13333,0.47855 -31.00791,1.2004 -33.05461,1.60414 -6.71884,1.32533 -10.64744,-5.78351 -4.89696,-8.86108 l 2.7151,-1.45308 29.42476,1.48852 c 16.18363,0.81869 29.71072,1.20257 30.06023,0.85306 0.34951,-0.34949 -4.80409,-8.03656 -11.45244,-17.08236 -11.64312,-15.84173 -14.21107,-21.11356 -10.28456,-21.11356 2.27025,0 7.68509,6.2276 21.34656,24.55066 l 10.52473,14.11601 19.8086,0.16667 c 10.89472,0.0917 20.40859,0.31666 21.14192,0.5 0.73334,0.18333 4.18334,0.49352 7.66667,0.68929 l 6.33333,0.35597 L 402,368.06059 c -5.13333,0.55844 -15.70879,1.14178 -23.501,1.2963 -7.79223,0.15453 -14.92951,0.75181 -15.86064,1.32728 l -1.69296,1.0463 13.08835,17.13478 c 7.19858,9.42412 13.27137,17.37026 13.49508,17.65809 0.22369,0.28784 1.41534,-0.31216 2.64809,-1.33333 l 2.24136,-1.85667 -0.99685,5.32317 c -0.54827,2.92776 -1.27779,5.77776 -1.62116,6.33334 -0.99195,1.605 -4.11847,1.17518 -6.03836,-0.83012 z" /></g></svg>
