<?xml version="1.0" encoding="UTF-8" standalone="no"?>
<!-- Created with Inkscape (http://www.inkscape.org/) -->

<svg
   version="1.1"
   id="svg48"
   width="121.33334"
   height="36.934063"
   viewBox="0 0 121.33334 36.934062"
   sodipodi:docname="script_reference_glyhps.svg"
   inkscape:version="1.2.2 (b0a8486541, 2022-12-01)"
   xml:space="preserve"
   xmlns:inkscape="http://www.inkscape.org/namespaces/inkscape"
   xmlns:sodipodi="http://sodipodi.sourceforge.net/DTD/sodipodi-0.dtd"
   xmlns="http://www.w3.org/2000/svg"
   xmlns:svg="http://www.w3.org/2000/svg"><defs
     id="defs52" /><sodipodi:namedview
     id="namedview50"
     pagecolor="#505050"
     bordercolor="#eeeeee"
     borderopacity="1"
     inkscape:showpageshadow="0"
     inkscape:pageopacity="0"
     inkscape:pagecheckerboard="0"
     inkscape:deskcolor="#505050"
     showgrid="false"
     inkscape:zoom="0.36018252"
     inkscape:cx="669.10521"
     inkscape:cy="664.94066"
     inkscape:window-width="1920"
     inkscape:window-height="1010"
     inkscape:window-x="0"
     inkscape:window-y="0"
     inkscape:window-maximized="1"
     inkscape:current-layer="g54" /><g
     inkscape:groupmode="layer"
     inkscape:label="Image"
     id="g54"
     transform="translate(-557.33333,-357.54708)"><path
       id="path796"
       style="fill:#000000;stroke-width:1.33333"
       d="m 652,393.68238 c -5.84884,-0.69875 -8.78892,-3.29367 -9.87297,-8.71388 -0.46514,-2.32569 -2.6935,-6.13497 -4.95191,-8.46505 l -4.1062,-4.23654 0.88872,-2.80012 c 0.48889,-1.54036 2.0198,-2.80012 3.4028,-2.80012 1.38275,0 3.99699,-0.67565 5.80941,-1.50145 l 3.29534,-1.50145 10.95228,1.60144 10.95229,1.60144 5.14845,3.25006 5.14846,3.25008 v 4.04528 4.0453 l -4.24935,2.27132 c -2.33713,1.24922 -5.65039,3.6073 -7.36279,5.24017 -3.51073,3.34769 -7.67484,5.80331 -9.30021,5.48443 -0.59821,-0.11734 -3.18765,-0.46427 -5.75432,-0.77091 z m -92,-7.01571 c -1.46667,-1.46666 -2.66667,-3.59236 -2.66667,-4.72376 0,-3.04892 9.07727,-19.57977 12.23211,-22.27624 4.10829,-3.51138 6.7,-2.9035 15.62121,3.66391 l 8.14668,5.99724 -0.0204,7.00276 c -0.0107,3.85152 -0.53817,7.81996 -1.171,8.81877 -1.45956,2.30371 -10.41384,4.05116 -21.14192,4.12592 l -8.33334,0.0581 z" /></g></svg>
