<?xml version="1.0" encoding="UTF-8" standalone="no"?>
<!-- Created with Inkscape (http://www.inkscape.org/) -->

<svg
   version="1.1"
   id="svg48"
   width="132.66666"
   height="107.35865"
   viewBox="0 0 132.66666 107.35865"
   sodipodi:docname="script_reference_glyhps.svg"
   inkscape:version="1.2.2 (b0a8486541, 2022-12-01)"
   xml:space="preserve"
   xmlns:inkscape="http://www.inkscape.org/namespaces/inkscape"
   xmlns:sodipodi="http://sodipodi.sourceforge.net/DTD/sodipodi-0.dtd"
   xmlns="http://www.w3.org/2000/svg"
   xmlns:svg="http://www.w3.org/2000/svg"><defs
     id="defs52" /><sodipodi:namedview
     id="namedview50"
     pagecolor="#505050"
     bordercolor="#eeeeee"
     borderopacity="1"
     inkscape:showpageshadow="0"
     inkscape:pageopacity="0"
     inkscape:pagecheckerboard="0"
     inkscape:deskcolor="#505050"
     showgrid="false"
     inkscape:zoom="0.36018252"
     inkscape:cx="669.10521"
     inkscape:cy="664.94066"
     inkscape:window-width="1920"
     inkscape:window-height="1010"
     inkscape:window-x="0"
     inkscape:window-y="0"
     inkscape:window-maximized="1"
     inkscape:current-layer="g54" /><g
     inkscape:groupmode="layer"
     inkscape:label="Image"
     id="g54"
     transform="translate(-806.66667,-332.68836)"><path
       id="path766"
       style="fill:#000000;stroke-width:1.33333"
       d="m 859.40923,437.09856 c -0.32048,-0.97087 -1.20446,-23.34807 -1.54022,-48.87875 -0.33576,-25.53069 -2.44687,-45.06308 -2.7054,-45.32161 -0.42308,-0.42308 1.8434,-0.14667 -22.80982,1.8482 -4.95,0.40055 -25.68712,0.0926 -25.68712,-0.53425 0,-0.62689 8.21096,-1.55188 18.24657,-2.05552 10.03561,-0.50365 21.70369,-1.27706 25.92905,-1.7187 l 7.57402,-0.86805 0.45109,-4.13484 0.71136,-2.74668 0.63359,2.6524 0.26484,4.4527 8.52281,-1.0338 c 1.02802,-0.12469 17.87255,-1.2541 28.8773,-1.24025 l 20.1227,0.0253 -9.86094,1.70646 c -6.17728,1.06899 -16.67935,1.79373 -26.21268,2.35032 -5.77778,0.33733 15.47589,-1.52724 -20.08843,0.42017 l 0.098,5.73291 c 0.0564,3.2996 1.77231,21.1513 2.84151,40.21796 1.06921,19.06667 1.36799,38.43644 0.85712,42.42311 l -0.9679,7.55313 -2.21466,1.92986 c -0.9876,0.8606 -2.72229,-1.80925 -3.04278,-2.78011 z m 51.93604,-34.80681 -18.65474,-2.77293 3.3214,-0.87927 c 1.82678,-0.4836 11.18891,-1.2518 20.80475,-1.70712 l 17.48333,-0.82784 2.51667,1.86962 2.51665,1.86961 -1.46781,2.41143 c -1.98232,3.25668 -4.83028,3.2606 -26.52025,0.0365 z"
       sodipodi:nodetypes="ssssssscccccsscsscssscsssscsscccss" /></g></svg>
