<?xml version="1.0" encoding="UTF-8" standalone="no"?>
<!-- Created with Inkscape (http://www.inkscape.org/) -->

<svg
   version="1.1"
   id="svg48"
   width="146.57684"
   height="89.075027"
   viewBox="0 0 146.57684 89.075025"
   sodipodi:docname="script_reference_glyhps.svg"
   inkscape:version="1.2.2 (b0a8486541, 2022-12-01)"
   xml:space="preserve"
   xmlns:inkscape="http://www.inkscape.org/namespaces/inkscape"
   xmlns:sodipodi="http://sodipodi.sourceforge.net/DTD/sodipodi-0.dtd"
   xmlns="http://www.w3.org/2000/svg"
   xmlns:svg="http://www.w3.org/2000/svg"><defs
     id="defs52" /><sodipodi:namedview
     id="namedview50"
     pagecolor="#505050"
     bordercolor="#eeeeee"
     borderopacity="1"
     inkscape:showpageshadow="0"
     inkscape:pageopacity="0"
     inkscape:pagecheckerboard="0"
     inkscape:deskcolor="#505050"
     showgrid="false"
     inkscape:zoom="0.36018252"
     inkscape:cx="669.10521"
     inkscape:cy="664.94066"
     inkscape:window-width="1920"
     inkscape:window-height="1010"
     inkscape:window-x="0"
     inkscape:window-y="0"
     inkscape:window-maximized="1"
     inkscape:current-layer="g54" /><g
     inkscape:groupmode="layer"
     inkscape:label="Image"
     id="g54"
     transform="translate(-1051.893,-337.44245)"><path
       id="path776"
       style="fill:#000000;stroke-width:1.33333"
       d="m 1057.0163,425.23569 c -1.2743,-0.74244 -2.9484,-2.52971 -3.7201,-3.97172 l -1.4032,-2.62184 5.2401,-16.98772 c 2.882,-9.34326 7.4927,-24.78774 10.246,-34.32107 2.7534,-9.53333 5.7974,-18.18985 6.7645,-19.23672 l 1.7584,-1.90339 0.895,2.3322 c 0.4922,1.28272 -0.9157,15.63924 -3.1288,31.90339 -2.213,16.26416 -3.8255,29.78943 -3.5832,30.05617 0.3823,0.42088 50.8078,3.72026 67.0224,4.38534 3.1757,0.13026 4.9757,0.65056 4,1.15624 -2.2716,1.17726 -30.5536,4.88202 -50.611,6.62972 -8.5269,0.74298 -18.6588,1.94928 -22.5153,2.68064 -8.3792,1.58908 -8.0584,1.59205 -10.9648,-0.1012 z m 140.2871,-7.34679 c -0.016,-0.67223 -1.4939,-18.61472 -3.2833,-39.8722 -3.0425,-36.14403 -2.9956,-42.26771 0.308,-40.22593 1.4125,0.87296 5.1778,79.14773 3.8703,80.45532 -0.4758,0.47576 -0.8785,0.31502 -0.895,-0.35719 z M 1126,381.83675 c -19.9004,-3.37173 -21.2817,-3.75837 -21.7293,-6.08232 -0.2374,-1.23264 0.6546,-2.81982 1.9822,-3.52706 2.8419,-1.51395 23.7205,-4.21822 32.609,-4.2236 9.1623,-0.005 33.0758,10.22929 29.3216,12.54952 -1.9111,1.18112 -19.8342,3.39045 -26.1835,3.22756 -2.9333,-0.0752 -10.1333,-0.9501 -16,-1.9441 z" /></g></svg>
