<?xml version="1.0" encoding="UTF-8" standalone="no"?>
<!-- Created with Inkscape (http://www.inkscape.org/) -->

<svg
   version="1.1"
   id="svg48"
   width="174.18921"
   height="86.445938"
   viewBox="0 0 174.18921 86.445936"
   sodipodi:docname="script_reference_glyhps.svg"
   inkscape:version="1.2.2 (b0a8486541, 2022-12-01)"
   xml:space="preserve"
   xmlns:inkscape="http://www.inkscape.org/namespaces/inkscape"
   xmlns:sodipodi="http://sodipodi.sourceforge.net/DTD/sodipodi-0.dtd"
   xmlns="http://www.w3.org/2000/svg"
   xmlns:svg="http://www.w3.org/2000/svg"><defs
     id="defs52" /><sodipodi:namedview
     id="namedview50"
     pagecolor="#505050"
     bordercolor="#eeeeee"
     borderopacity="1"
     inkscape:showpageshadow="0"
     inkscape:pageopacity="0"
     inkscape:pagecheckerboard="0"
     inkscape:deskcolor="#505050"
     showgrid="false"
     inkscape:zoom="0.36018252"
     inkscape:cx="669.10521"
     inkscape:cy="664.94066"
     inkscape:window-width="1920"
     inkscape:window-height="1010"
     inkscape:window-x="0"
     inkscape:window-y="0"
     inkscape:window-maximized="1"
     inkscape:current-layer="g54" /><g
     inkscape:groupmode="layer"
     inkscape:label="Image"
     id="g54"
     transform="translate(-1315.1238,-330.84441)"><path
       style="fill:#000000;stroke-width:1.33333"
       d="m 1320.7423,414.36999 c -2.4762,-3.53522 -2.6403,-6.83528 -0.5097,-10.24702 l 1.566,-2.50752 -3.7228,-19.57436 c -5.4687,-28.75438 -3.5936,-40.0286 7.7644,-46.68434 7.5194,-4.40636 13.9251,-5.17816 33.5722,-4.04497 l 16.838,0.97119 -1.2941,1.29409 c -0.7118,0.71176 -6.9182,2.1788 -13.7919,3.26008 -19.1335,3.00983 -23.5405,4.43269 -27.2001,8.78177 -4.2042,4.99647 -4.1464,5.8517 0.7024,10.3811 4.8833,4.56177 5.0848,8.28649 0.6372,11.78497 l -3.3629,2.6452 2.6962,12.10413 c 1.4828,6.65727 2.6961,13.84544 2.6961,15.9737 v 3.86957 l 3.1532,0.79141 c 4.7352,1.18847 46.0607,6.4626 52.1802,6.65946 l 5.3333,0.17156 v -14.66667 -14.66667 h -15.8823 -15.8822 l -0.4996,-1.47878 c -0.6311,-1.86842 8.661,-3.18788 22.4502,-3.18788 h 10.4806 l 0.1446,-11.66667 c 0.08,-6.41667 0.5915,-15.26667 1.1374,-19.66667 l 0.9926,-8 0.203,6.66667 c 0.112,3.66667 0.5901,12.5146 1.0634,19.66207 l 0.8606,12.99538 41.578,-0.21076 c 22.868,-0.11586 42.2776,0.22158 43.1325,0.74996 0.8551,0.5284 1.5453,2.27532 1.5341,3.88204 -0.013,1.80271 -0.402,2.32139 -1.0169,1.35456 l -0.9965,-1.56674 -15.9831,-0.39734 c -8.7907,-0.21852 -27.8581,-0.26349 -42.372,-0.0999 l -26.3889,0.29736 0.8469,10.33333 c 0.4659,5.68333 1.3293,13.63333 1.9191,17.66667 0.5896,4.03333 0.8522,7.56461 0.5836,7.84728 -0.2687,0.28266 -2.0134,-0.48518 -3.8771,-1.70631 l -3.3885,-2.22025 -2.7575,1.47577 c -2.1687,1.16061 -45.8283,3.60739 -69.4731,3.8934 -2.234,0.0271 -4.3754,-1.07635 -5.6666,-2.91991 z"
       id="path786" /></g></svg>
