<?xml version="1.0" encoding="UTF-8" standalone="no"?>
<!-- Created with Inkscape (http://www.inkscape.org/) -->

<svg
   version="1.1"
   id="svg48"
   width="115.29091"
   height="109.2729"
   viewBox="0 0 115.29091 109.27289"
   sodipodi:docname="script_reference_glyhps.svg"
   inkscape:version="1.2.2 (b0a8486541, 2022-12-01)"
   xml:space="preserve"
   xmlns:inkscape="http://www.inkscape.org/namespaces/inkscape"
   xmlns:sodipodi="http://sodipodi.sourceforge.net/DTD/sodipodi-0.dtd"
   xmlns="http://www.w3.org/2000/svg"
   xmlns:svg="http://www.w3.org/2000/svg"><defs
     id="defs52" /><sodipodi:namedview
     id="namedview50"
     pagecolor="#505050"
     bordercolor="#eeeeee"
     borderopacity="1"
     inkscape:showpageshadow="0"
     inkscape:pageopacity="0"
     inkscape:pagecheckerboard="0"
     inkscape:deskcolor="#505050"
     showgrid="false"
     inkscape:zoom="0.36018252"
     inkscape:cx="669.10521"
     inkscape:cy="664.94066"
     inkscape:window-width="1920"
     inkscape:window-height="1010"
     inkscape:window-x="0"
     inkscape:window-y="0"
     inkscape:window-maximized="1"
     inkscape:current-layer="g54" /><g
     inkscape:groupmode="layer"
     inkscape:label="Image"
     id="g54"
     transform="translate(-1580,-320.00001)"><path
       id="path772"
       style="fill:#000000;stroke-width:1.33333"
       d="m 1634.7,425.66667 c -1.5597,-2.01666 -12.3217,-19.52648 -23.9155,-38.91069 -11.5936,-19.38421 -22.4542,-36.78421 -24.1348,-38.66667 -3.3062,-3.70361 -6.6497,-10.76616 -6.6497,-14.04648 0,-2.8258 3.2925,-2.56188 5.504,0.44119 13.5813,18.4422 50.1736,66.9046 52.2271,69.169 l 2.7081,2.98635 2.9321,-4.31968 c 1.6128,-2.37583 10.7694,-17.33063 20.348,-33.2329 16.6144,-27.5831 30.4339,-49.08678 31.5458,-49.08678 0.6229,0 -10.1412,24.17192 -20.1876,45.33333 -4.0038,8.43333 -11.7859,25.53333 -17.2935,38 -5.5077,12.46667 -10.9769,23.41667 -12.1539,24.33334 -3.5044,2.72956 -7.8929,1.92654 -10.9301,-2.00001 z m -6.5129,-65.4796 c -3.2323,-3.23232 -2.7707,-5.34309 2.7094,-12.38952 2.2762,-2.92662 3.4591,-5.72332 2.9652,-7.01029 -1.0537,-2.74595 2.583,-8.32551 6.168,-9.46336 3.9184,-1.24365 8.777,2.37355 10.5975,7.88985 l 1.5319,4.64154 2.2537,-0.84395 2.2539,-0.84395 -1.746,2.14858 -1.7462,2.14856 0.844,4.49904 0.8442,4.49902 -2.4314,2.87342 -2.4313,2.87342 -9.5099,0.88546 -9.5098,0.88544 z" /></g></svg>
