<?xml version="1.0" encoding="UTF-8" standalone="no"?>
<!-- Created with Inkscape (http://www.inkscape.org/) -->

<svg
   version="1.1"
   id="svg48"
   width="202.07521"
   height="122.13143"
   viewBox="0 0 202.07521 122.13143"
   sodipodi:docname="script_reference_glyhps.svg"
   inkscape:version="1.2.2 (b0a8486541, 2022-12-01)"
   xml:space="preserve"
   xmlns:inkscape="http://www.inkscape.org/namespaces/inkscape"
   xmlns:sodipodi="http://sodipodi.sourceforge.net/DTD/sodipodi-0.dtd"
   xmlns="http://www.w3.org/2000/svg"
   xmlns:svg="http://www.w3.org/2000/svg"><defs
     id="defs52" /><sodipodi:namedview
     id="namedview50"
     pagecolor="#505050"
     bordercolor="#eeeeee"
     borderopacity="1"
     inkscape:showpageshadow="0"
     inkscape:pageopacity="0"
     inkscape:pagecheckerboard="0"
     inkscape:deskcolor="#505050"
     showgrid="false"
     inkscape:zoom="0.36018252"
     inkscape:cx="669.10521"
     inkscape:cy="664.94066"
     inkscape:window-width="1920"
     inkscape:window-height="1010"
     inkscape:window-x="0"
     inkscape:window-y="0"
     inkscape:window-maximized="1"
     inkscape:current-layer="g54" /><g
     inkscape:groupmode="layer"
     inkscape:label="Image"
     id="g54"
     transform="translate(-1801.9582,-313.79792)"><path
       id="path770"
       style="fill:#000000;stroke-width:1.33333"
       d="m 1823.7248,433.66668 c -2.828,-3.26382 -13.0496,-49.22009 -13.056,-58.70001 v -3.03333 l -4.0277,-0.80555 c -2.2154,-0.44305 -4.2971,-1.24138 -4.6263,-1.77406 -0.3293,-0.53267 0.8129,-0.69868 2.538,-0.36888 1.7252,0.32978 3.4832,0.0392 3.9065,-0.64588 0.4234,-0.68502 -0.6993,-9.29152 -2.4949,-19.12556 -1.7956,-9.83404 -3.2716,-19.20896 -3.2801,-20.83316 -0.02,-3.85704 3.882,-5.87243 8.7824,-4.53596 l 3.8688,1.05509 -0.4554,7.63368 c -0.2504,4.19853 0.2802,13.83885 1.179,21.42293 l 1.6341,13.78923 12.0021,0.94995 c 11.4022,0.90244 71.0703,0.22996 134.9735,-1.5212 16.1333,-0.44211 28.9815,-0.43527 28.5515,0.0152 -1.3863,1.45214 -42.7563,11.20724 -57.8848,13.64929 -25.0648,4.04597 -62.8394,2.01924 -104.4843,-5.60595 -6.1331,-1.12296 -11.4505,-1.74212 -11.8168,-1.37593 -0.7144,0.71445 5.8297,48.85216 7.4804,55.02416 l 0.9912,3.70594 3.248,0.76805 3.2481,0.76804 -2.4424,0.93861 c -3.7994,1.46014 -5.6436,1.13176 -7.8328,-1.39472 z m 176.4855,-32.00001 c -0.8647,-8.61666 -3.0602,-29.76666 -4.8787,-47 -3.5441,-33.58466 -4.0277,-42.62666 -2.1715,-40.6 1.0276,1.12204 10.9562,92.67972 10.8728,100.26667 -0.019,1.65 -0.5318,3 -1.1416,3 -0.6098,0 -1.8162,-7.05 -2.681,-15.66667 z" /></g></svg>
