<?xml version="1.0" encoding="UTF-8" standalone="no"?>
<!-- Created with Inkscape (http://www.inkscape.org/) -->

<svg
   version="1.1"
   id="svg48"
   width="93.4189"
   height="100.86059"
   viewBox="0 0 93.4189 100.86059"
   sodipodi:docname="script_reference_glyhps.svg"
   inkscape:version="1.2.2 (b0a8486541, 2022-12-01)"
   xml:space="preserve"
   xmlns:inkscape="http://www.inkscape.org/namespaces/inkscape"
   xmlns:sodipodi="http://sodipodi.sourceforge.net/DTD/sodipodi-0.dtd"
   xmlns="http://www.w3.org/2000/svg"
   xmlns:svg="http://www.w3.org/2000/svg"><defs
     id="defs52" /><sodipodi:namedview
     id="namedview50"
     pagecolor="#505050"
     bordercolor="#eeeeee"
     borderopacity="1"
     inkscape:showpageshadow="0"
     inkscape:pageopacity="0"
     inkscape:pagecheckerboard="0"
     inkscape:deskcolor="#505050"
     showgrid="false"
     inkscape:zoom="0.36018252"
     inkscape:cx="669.10521"
     inkscape:cy="664.94066"
     inkscape:window-width="1920"
     inkscape:window-height="1010"
     inkscape:window-x="0"
     inkscape:window-y="0"
     inkscape:window-maximized="1"
     inkscape:current-layer="g54" /><g
     inkscape:groupmode="layer"
     inkscape:label="Image"
     id="g54"
     transform="translate(-2121.6715,-323.06511)"><path
       id="path780"
       style="fill:#000000;stroke-width:1.33333"
       d="m 2200.7928,421.47279 -2.2871,-2.52722 0.7278,-14.47278 c 0.4002,-7.96004 1.0508,-24.97278 1.4456,-37.80612 1.2117,-39.38536 2.5956,-48.9173 5.9636,-41.07518 1.1141,2.59408 3.7809,31.86292 7.6176,83.6048 l 0.8301,11.19628 -2.4667,1.80372 c -3.519,2.57316 -9.1596,2.22821 -11.8309,-0.7235 z M 2142,395.07825 c -5.2203,-2.80374 -15.3668,-11.73078 -18.1424,-15.96204 l -2.1861,-3.3326 3.1273,-9.24394 c 1.7201,-5.08416 3.7652,-10.43548 4.5445,-11.8918 l 1.4172,-2.64786 h 7.6203 c 11.4317,0 24.5961,3.21898 33.1283,8.10057 9.3209,5.33288 12.4909,8.38205 12.4909,12.01483 0,3.54721 -15.0245,19.31874 -21.6136,22.68822 -5.9967,3.06659 -14.9631,3.18738 -20.3864,0.27462 z" /></g></svg>
