<?xml version="1.0" encoding="UTF-8" standalone="no"?>
<!-- Created with Inkscape (http://www.inkscape.org/) -->

<svg
   version="1.1"
   id="svg48"
   width="139.6031"
   height="96.948997"
   viewBox="0 0 139.6031 96.948995"
   sodipodi:docname="script_reference_glyhps.svg"
   inkscape:version="1.2.2 (b0a8486541, 2022-12-01)"
   xml:space="preserve"
   xmlns:inkscape="http://www.inkscape.org/namespaces/inkscape"
   xmlns:sodipodi="http://sodipodi.sourceforge.net/DTD/sodipodi-0.dtd"
   xmlns="http://www.w3.org/2000/svg"
   xmlns:svg="http://www.w3.org/2000/svg"><defs
     id="defs52" /><sodipodi:namedview
     id="namedview50"
     pagecolor="#505050"
     bordercolor="#eeeeee"
     borderopacity="1"
     inkscape:showpageshadow="0"
     inkscape:pageopacity="0"
     inkscape:pagecheckerboard="0"
     inkscape:deskcolor="#505050"
     showgrid="false"
     inkscape:zoom="0.36018252"
     inkscape:cx="669.10521"
     inkscape:cy="664.94066"
     inkscape:window-width="1920"
     inkscape:window-height="1010"
     inkscape:window-x="0"
     inkscape:window-y="0"
     inkscape:window-maximized="1"
     inkscape:current-layer="g54" /><g
     inkscape:groupmode="layer"
     inkscape:label="Image"
     id="g54"
     transform="translate(-2354.6667,-339.93128)"><path
       id="path768"
       style="fill:#000000;stroke-width:1.33333"
       d="m 2488.3442,436.78596 c -0.5387,-0.82844 -1.2991,-16.12844 -1.6896,-34 -0.3905,-17.87157 -0.9787,-38.49376 -1.3068,-45.82709 -0.3283,-7.33334 -0.083,-14.16455 0.5465,-15.18047 l 1.1432,-1.84712 3.6162,0.90759 3.6161,0.9076 -0.856,2.93953 c -0.7565,2.59755 -2.86,48.19107 -3.7649,81.6062 -0.1788,6.6 -0.7659,11.32219 -1.3047,10.49376 z M 2356.752,384.0619 c -1.2424,-2.60521 -2.0853,-7.48119 -2.0853,-8.29049 v -1.47146 l 11.6666,0.90195 c 6.4167,0.49607 23.5575,1.42231 37.4908,2.80817 13.9334,1.38584 42.387,2.33284 52.3985,3.90478 13.9975,2.19781 3.526,3.21589 3.1655,3.19878 l -63.6757,-1.37699 -33.9958,-2.95081 3.7385,9.01365 c 1.8062,4.35485 -6.3043,-0.70729 -8.7031,-5.73758 z" /></g></svg>
