<?xml version="1.0" encoding="UTF-8" standalone="no"?>
<!-- Created with Inkscape (http://www.inkscape.org/) -->

<svg
   version="1.1"
   id="svg48"
   width="259.6163"
   height="90.326508"
   viewBox="0 0 259.6163 90.326505"
   sodipodi:docname="script_reference_glyhps.svg"
   inkscape:version="1.2.2 (b0a8486541, 2022-12-01)"
   xml:space="preserve"
   xmlns:inkscape="http://www.inkscape.org/namespaces/inkscape"
   xmlns:sodipodi="http://sodipodi.sourceforge.net/DTD/sodipodi-0.dtd"
   xmlns="http://www.w3.org/2000/svg"
   xmlns:svg="http://www.w3.org/2000/svg"><defs
     id="defs52" /><sodipodi:namedview
     id="namedview50"
     pagecolor="#505050"
     bordercolor="#eeeeee"
     borderopacity="1"
     inkscape:showpageshadow="0"
     inkscape:pageopacity="0"
     inkscape:pagecheckerboard="0"
     inkscape:deskcolor="#505050"
     showgrid="false"
     inkscape:zoom="0.36018252"
     inkscape:cx="669.10521"
     inkscape:cy="664.94066"
     inkscape:window-width="1920"
     inkscape:window-height="1010"
     inkscape:window-x="0"
     inkscape:window-y="0"
     inkscape:window-maximized="1"
     inkscape:current-layer="g54" /><g
     inkscape:groupmode="layer"
     inkscape:label="Image"
     id="g54"
     transform="translate(-31.333333,-572.66668)"><path
       id="path750"
       style="fill:#000000;stroke-width:1.33333"
       d="m 41.899105,661.4966 c 0.508718,-0.82312 3.43953,-1.56757 6.512918,-1.65433 C 51.485411,659.75549 55.8,659.22648 58,658.66668 l 4,-1.01783 -7.333333,-0.30246 c -4.033334,-0.16636 -10.933334,-0.69543 -15.333334,-1.17572 l -8,-0.87327 20.698443,-1.66841 c 11.384143,-0.91764 37.184143,-2.55742 57.333334,-3.64396 20.14919,-1.08655 44.35269,-2.6257 53.78557,-3.42034 9.43287,-0.79464 18.57373,-1.08764 20.31303,-0.6511 5.3951,1.35409 6.09262,13.08404 0.86653,14.57228 -1.28164,0.36497 -34.06105,1.07842 -72.84316,1.58545 l -70.512916,0.92187 z m 234.782585,-2.81332 -2.39828,-2.65007 1.50679,-11.68326 c 0.82873,-6.4258 2.75868,-23.50268 4.28876,-37.94864 1.53009,-14.44595 3.23973,-27.94595 3.7992,-30.00001 l 1.01724,-3.73462 0.83776,6 c 0.46077,3.3 1.15621,11.4 1.54541,18 0.3892,6.6 1.37442,22.6824 2.18936,35.73867 l 1.48172,23.73866 -2.34814,2.59467 c -3.03095,3.34916 -8.86326,3.32205 -11.91982,-0.0553 z M 97.666667,620.4586 c -1.65,-0.35423 -3,-1.13728 -3,-1.74011 0,-1.54718 3.741906,-2.24777 22.342263,-4.18305 17.26544,-1.7964 19.35734,-3.81348 3.99107,-3.84835 -5.0975,-0.0116 -9,-0.59856 -9,-1.35374 0,-0.73334 0.75,-1.33948 1.66667,-1.347 2.11924,-0.0173 85.69369,-3.58372 112.86154,-4.8161 l 20.52823,-0.93118 1.80511,2.46865 c 0.99281,1.35775 1.80512,4.14013 1.80512,6.18307 v 3.71441 l -3,1.87955 -3,1.87954 L 180,619.21187 c -35.56667,0.46616 -67.96667,1.08229 -72,1.36918 -4.03333,0.28688 -8.683333,0.23179 -10.333333,-0.1224 z" /></g></svg>
