<?xml version="1.0" encoding="UTF-8" standalone="no"?>
<!-- Created with Inkscape (http://www.inkscape.org/) -->

<svg
   version="1.1"
   id="svg48"
   width="222.16397"
   height="111.3557"
   viewBox="0 0 222.16397 111.35569"
   sodipodi:docname="script_reference_glyhps.svg"
   inkscape:version="1.2.2 (b0a8486541, 2022-12-01)"
   xml:space="preserve"
   xmlns:inkscape="http://www.inkscape.org/namespaces/inkscape"
   xmlns:sodipodi="http://sodipodi.sourceforge.net/DTD/sodipodi-0.dtd"
   xmlns="http://www.w3.org/2000/svg"
   xmlns:svg="http://www.w3.org/2000/svg"><defs
     id="defs52" /><sodipodi:namedview
     id="namedview50"
     pagecolor="#505050"
     bordercolor="#eeeeee"
     borderopacity="1"
     inkscape:showpageshadow="0"
     inkscape:pageopacity="0"
     inkscape:pagecheckerboard="0"
     inkscape:deskcolor="#505050"
     showgrid="false"
     inkscape:zoom="0.36018252"
     inkscape:cx="669.10521"
     inkscape:cy="664.94066"
     inkscape:window-width="1920"
     inkscape:window-height="1010"
     inkscape:window-x="0"
     inkscape:window-y="0"
     inkscape:window-maximized="1"
     inkscape:current-layer="g54" /><g
     inkscape:groupmode="layer"
     inkscape:label="Image"
     id="g54"
     transform="translate(-377.83603,-559.22064)"><path
       style="fill:#000000;stroke-width:1.33333"
       d="m 474.53501,667.86836 -2.7983,-2.79831 0.77424,-5.53502 c 1.46921,-10.50324 3.75441,-40.50575 3.27486,-42.99583 l -0.48085,-2.49685 -11.31915,-1.50948 c -6.22553,-0.8302 -11.71476,-1.13974 -12.1983,-0.68783 -0.48354,0.45191 -1.29111,12.22164 -1.7946,26.15497 -0.5035,13.93334 -1.41754,25.863 -2.03122,26.51038 -0.61368,0.64737 -2.10866,0.79604 -3.3222,0.33036 l -2.20642,-0.84668 0.80786,-16.33036 c 0.44432,-8.9817 1.13812,-20.98036 1.54176,-26.6637 l 0.73391,-10.33333 -3.09164,-0.012 c -3.90824,-0.0144 -30.34197,-1.83908 -39.86195,-2.9691 -15.88098,-0.52294 -3.34756,-0.11517 -13.55035,-0.0376 -11.15763,0.42606 -7.83277,-1.99154 -11.17277,-2.71475 -0.23244,-3.07638 10.09487,-3.59824 13.17383,-3.40287 2.56665,0.0637 8.12307,-1.42361 12.77173,-2.88081 l 8.45214,-2.64947 10.8812,0.058 c 5.98466,0.032 13.43961,0.5529 16.56656,1.15772 l 5.68533,1.09964 0.57993,-2.82438 c 0.31896,-1.55341 0.80722,-9.16446 1.085,-16.91344 0.27779,-7.74898 0.94988,-14.80877 1.49352,-15.68842 2.4598,-3.97999 3.47087,1.26905 3.47087,18.0193 v 18.08441 l 11.96449,-0.57203 c 6.58047,-0.31463 12.21763,-0.83801 12.52702,-1.1631 0.3094,-0.32509 1.25914,-8.39106 2.11057,-17.9244 1.81173,-20.28586 1.95575,-20.88056 4.79257,-19.79197 l 2.16227,0.82975 0.9869,0.39137 c 0.97123,0.38516 0.48369,0.74119 0.61509,1.15806 1.78371,5.65869 2.17442,3.49816 2.17442,17.66615 v 8.39812 8.39812 l 9.35115,-0.86909 c 22.04204,-2.0486 45.85615,-2.35261 64.64885,-0.82535 11,0.89398 23.75,1.90598 28.33334,2.2489 5.1268,0.38357 8.33333,1.22471 8.33333,2.18599 v 1.5625 l -6,-0.4772 -6,-0.4772 v 3.92762 c 0,2.16018 -1.05,4.85621 -2.33333,5.99116 l -2.33334,2.06356 -32,1.47712 c -17.6,0.81241 -38.71434,1.4768 -46.92076,1.47642 l -14.92077,-6.9e-4 -0.41256,26.10987 -0.41257,26.10985 -2.58818,1.89015 c -3.69473,2.69825 -8.2993,2.33598 -11.54348,-0.90819 z"
       id="path748"
       sodipodi:nodetypes="scsscssssscssccccccsccscsssscsssscsasccsssscccsscsscccsss" /></g></svg>
