<?xml version="1.0" encoding="UTF-8" standalone="no"?>
<!-- Created with Inkscape (http://www.inkscape.org/) -->

<svg
   version="1.1"
   id="svg48"
   width="104.94795"
   height="142.69025"
   viewBox="0 0 104.94795 142.69024"
   sodipodi:docname="script_reference_glyhps.svg"
   inkscape:version="1.2.2 (b0a8486541, 2022-12-01)"
   xml:space="preserve"
   xmlns:inkscape="http://www.inkscape.org/namespaces/inkscape"
   xmlns:sodipodi="http://sodipodi.sourceforge.net/DTD/sodipodi-0.dtd"
   xmlns="http://www.w3.org/2000/svg"
   xmlns:svg="http://www.w3.org/2000/svg"><defs
     id="defs52" /><sodipodi:namedview
     id="namedview50"
     pagecolor="#505050"
     bordercolor="#eeeeee"
     borderopacity="1"
     inkscape:showpageshadow="0"
     inkscape:pageopacity="0"
     inkscape:pagecheckerboard="0"
     inkscape:deskcolor="#505050"
     showgrid="false"
     inkscape:zoom="0.36018252"
     inkscape:cx="669.10521"
     inkscape:cy="664.94066"
     inkscape:window-width="1920"
     inkscape:window-height="1010"
     inkscape:window-x="0"
     inkscape:window-y="0"
     inkscape:window-maximized="1"
     inkscape:current-layer="g54" /><g
     inkscape:groupmode="layer"
     inkscape:label="Image"
     id="g54"
     transform="translate(-705.05205,-534.53728)"><path
       style="fill:#000000;stroke-width:1.33333"
       d="m 745.00393,675.66668 c -1.19482,-0.91667 -5.72837,-7.66667 -10.07457,-15 -14.61733,-24.66387 -24.03859,-39.54143 -26.03249,-41.10919 -1.08946,-0.85661 -2.40023,-3.57857 -2.91283,-6.0488 l -0.93199,-4.49133 1.80731,0.56911 c 1.56932,0.49414 27.53864,30.51066 32.58779,37.66644 1.00366,1.42241 2.17286,2.2382 2.59822,1.81284 0.42536,-0.42536 1.32396,-8.18916 1.99688,-17.2529 0.67292,-9.06373 2.47467,-33.57201 4.00388,-54.46284 l 2.7804,-37.98335 2.18527,-2.41469 2.18527,-2.41469 4.06813,0.39804 4.06813,0.39802 9.7816,17.92288 c 20.04271,36.7244 30.54386,54.08478 33.70708,55.72414 l 3.17799,1.64701 -2.88813,0.0196 -2.88812,0.0196 -7.5485,-8.33333 c -4.15165,-4.58333 -12.752,-15.3613 -19.11186,-23.95103 C 771.20352,569.79248 765.55,562.74248 765,562.71554 c -0.55,-0.0269 -1.00591,1.60103 -1.01313,3.6177 -0.007,2.01666 -1.78458,26.76666 -3.94966,55 l -3.93652,51.33333 -2.86473,2.33334 c -3.39505,2.76529 -5.29593,2.91922 -8.23203,0.66666 z"
       id="path216" /></g></svg>
