<?xml version="1.0" encoding="UTF-8" standalone="no"?>
<!-- Created with Inkscape (http://www.inkscape.org/) -->

<svg
   version="1.1"
   id="svg48"
   width="227.95723"
   height="148"
   viewBox="0 0 227.95723 148"
   sodipodi:docname="script_reference_glyhps.svg"
   inkscape:version="1.2.2 (b0a8486541, 2022-12-01)"
   xml:space="preserve"
   xmlns:inkscape="http://www.inkscape.org/namespaces/inkscape"
   xmlns:sodipodi="http://sodipodi.sourceforge.net/DTD/sodipodi-0.dtd"
   xmlns="http://www.w3.org/2000/svg"
   xmlns:svg="http://www.w3.org/2000/svg"><defs
     id="defs52" /><sodipodi:namedview
     id="namedview50"
     pagecolor="#505050"
     bordercolor="#eeeeee"
     borderopacity="1"
     inkscape:showpageshadow="0"
     inkscape:pageopacity="0"
     inkscape:pagecheckerboard="0"
     inkscape:deskcolor="#505050"
     showgrid="false"
     inkscape:zoom="0.36018252"
     inkscape:cx="669.10521"
     inkscape:cy="664.94066"
     inkscape:window-width="1920"
     inkscape:window-height="1010"
     inkscape:window-x="0"
     inkscape:window-y="0"
     inkscape:window-maximized="1"
     inkscape:current-layer="g54" /><g
     inkscape:groupmode="layer"
     inkscape:label="Image"
     id="g54"
     transform="translate(-961.61302,-530.00001)"><path
       id="path746"
       style="fill:#000000;stroke-width:1.33333"
       d="m 965.23856,674.85687 1.67515,-3.14315 -1.45686,-1.45685 c -3.3786,-3.3786 -1.04996,-7.77742 12.93882,-24.44146 7.91761,-9.4318 22.05553,-26.59873 31.41763,-38.14873 l 17.0219,-21 -4.4176,-0.14223 c -2.4297,-0.0783 -16.9382,-0.34879 -32.24108,-0.60125 -15.30291,-0.25247 -28.15291,-0.78847 -28.55555,-1.19111 -0.40265,-0.40264 14.53815,-0.73208 33.20178,-0.73208 h 33.93385 l 21.6217,-26.18307 C 1062.2702,543.41626 1072,532.22324 1072,532.94357 c 0,0.72032 -2.4,5.02295 -5.3333,9.56139 -5.8805,9.09825 -6.4936,10.73152 -3,7.99164 l 2.3333,-1.82992 -1.8177,2.31865 c -0.9998,1.27525 -2.3197,2.00845 -2.9331,1.62932 -1.1779,-0.72792 -4.6905,4.65477 -4.1883,6.41793 0.1618,0.56792 -3.845,6.26792 -8.9039,12.66667 l -9.1981,11.63409 38.8539,0.66667 c 21.3696,0.36667 38.2539,1.02487 37.5205,1.46267 -0.7333,0.4378 -17.5333,0.68832 -37.3333,0.55672 -19.8,-0.1316 -37.3167,0.11026 -38.9259,0.53734 -3.0009,0.7965 -17.6553,20.93677 -46.88995,64.44333 -8.81146,13.11305 -15.93814,22.41478 -17.26228,22.53069 -1.24036,0.10853 -3.20823,0.25857 -4.37303,0.33333 -1.1648,0.0748 -3.21304,1.03592 -4.55163,2.13592 l -2.4338,2 z m 200.94134,-31.78808 c -0.1509,-0.15086 -25.3055,-0.36431 -55.8992,-0.47432 -31.1845,-0.11214 -55.95,-0.72607 -56.3648,-1.39724 -0.407,-0.65847 1.4689,-1.19722 4.1687,-1.19722 h 4.9086 l -1.5545,-1.87302 -1.5545,-1.87303 5.0579,-0.75912 c 5.8566,-0.87899 37.8484,-3.05061 61.0579,-4.14464 8.8,-0.41481 24.7794,-1.42105 35.5098,-2.23611 10.7304,-0.81504 20.9776,-1.11352 22.7714,-0.66329 6.475,1.62512 7.1964,10.92755 1.1005,14.19 -2.2069,1.18109 -18.0946,1.53521 -19.2018,0.42799 z m -108.8466,-84.90553 c 0,-0.27686 1.05,-1.32686 2.3334,-2.33333 l 2.3333,-1.82992 -1.8299,2.33333 c -1.7418,2.221 -2.8368,2.92731 -2.8368,1.82992 z m 10,-12.82992 c 1.3274,-1.46666 2.7133,-2.66666 3.08,-2.66666 0.3667,0 -0.4193,1.2 -1.7466,2.66666 -1.3274,1.46667 -2.7133,2.66667 -3.08,2.66667 -0.3667,0 0.4193,-1.2 1.7466,-2.66667 z m 5.3334,-6.66666 c 1.3273,-1.46667 2.7133,-2.66667 3.0799,-2.66667 0.3667,0 -0.4193,1.2 -1.7466,2.66667 -1.3273,1.46666 -2.7133,2.66666 -3.08,2.66666 -0.3666,0 0.4193,-1.2 1.7467,-2.66666 z M 1076,534.16326 c 0,-0.27686 1.05,-1.32686 2.3333,-2.33333 l 2.3334,-1.82992 -1.83,2.33333 c -1.7418,2.221 -2.8367,2.92731 -2.8367,1.82992 z" /></g></svg>
