<?xml version="1.0" encoding="UTF-8" standalone="no"?>
<!-- Created with Inkscape (http://www.inkscape.org/) -->

<svg
   version="1.1"
   id="svg48"
   width="2560"
   height="1706.6667"
   viewBox="0 0 2560 1706.6667"
   sodipodi:docname="script_reference_glyhps.svg"
   inkscape:version="1.2.2 (b0a8486541, 2022-12-01)"
   xml:space="preserve"
   xmlns:inkscape="http://www.inkscape.org/namespaces/inkscape"
   xmlns:sodipodi="http://sodipodi.sourceforge.net/DTD/sodipodi-0.dtd"
   xmlns="http://www.w3.org/2000/svg"
   xmlns:svg="http://www.w3.org/2000/svg"><defs
     id="defs52" /><sodipodi:namedview
     id="namedview50"
     pagecolor="#505050"
     bordercolor="#eeeeee"
     borderopacity="1"
     inkscape:showpageshadow="0"
     inkscape:pageopacity="0"
     inkscape:pagecheckerboard="0"
     inkscape:deskcolor="#505050"
     showgrid="false"
     inkscape:zoom="1.4407301"
     inkscape:cx="598.65481"
     inkscape:cy="956.80655"
     inkscape:window-width="1920"
     inkscape:window-height="1010"
     inkscape:window-x="0"
     inkscape:window-y="0"
     inkscape:window-maximized="1"
     inkscape:current-layer="g54" /><g
     inkscape:groupmode="layer"
     inkscape:label="Image"
     id="g54"><path
       id="path746"
       style="fill:#000000;stroke-width:1.33333"
       d="m 965.23856,674.85687 1.67515,-3.14315 -1.45686,-1.45685 c -3.3786,-3.3786 -1.04996,-7.77742 12.93882,-24.44146 7.91761,-9.4318 22.05553,-26.59873 31.41763,-38.14873 l 17.0219,-21 -4.4176,-0.14223 c -2.4297,-0.0783 -16.9382,-0.34879 -32.24108,-0.60125 -15.30291,-0.25247 -28.15291,-0.78847 -28.55555,-1.19111 -0.40265,-0.40264 14.53815,-0.73208 33.20178,-0.73208 h 33.93385 l 21.6217,-26.18307 C 1062.2702,543.41626 1072,532.22324 1072,532.94357 c 0,0.72032 -2.4,5.02295 -5.3333,9.56139 -5.8805,9.09825 -6.4936,10.73152 -3,7.99164 l 2.3333,-1.82992 -1.8177,2.31865 c -0.9998,1.27525 -2.3197,2.00845 -2.9331,1.62932 -1.1779,-0.72792 -4.6905,4.65477 -4.1883,6.41793 0.1618,0.56792 -3.845,6.26792 -8.9039,12.66667 l -9.1981,11.63409 38.8539,0.66667 c 21.3696,0.36667 38.2539,1.02487 37.5205,1.46267 -0.7333,0.4378 -17.5333,0.68832 -37.3333,0.55672 -19.8,-0.1316 -37.3167,0.11026 -38.9259,0.53734 -3.0009,0.7965 -17.6553,20.93677 -46.88995,64.44333 -8.81146,13.11305 -15.93814,22.41478 -17.26228,22.53069 -1.24036,0.10853 -3.20823,0.25857 -4.37303,0.33333 -1.1648,0.0748 -3.21304,1.03592 -4.55163,2.13592 l -2.4338,2 z m 200.94134,-31.78808 c -0.1509,-0.15086 -25.3055,-0.36431 -55.8992,-0.47432 -31.1845,-0.11214 -55.95,-0.72607 -56.3648,-1.39724 -0.407,-0.65847 1.4689,-1.19722 4.1687,-1.19722 h 4.9086 l -1.5545,-1.87302 -1.5545,-1.87303 5.0579,-0.75912 c 5.8566,-0.87899 37.8484,-3.05061 61.0579,-4.14464 8.8,-0.41481 24.7794,-1.42105 35.5098,-2.23611 10.7304,-0.81504 20.9776,-1.11352 22.7714,-0.66329 6.475,1.62512 7.1964,10.92755 1.1005,14.19 -2.2069,1.18109 -18.0946,1.53521 -19.2018,0.42799 z m -108.8466,-84.90553 c 0,-0.27686 1.05,-1.32686 2.3334,-2.33333 l 2.3333,-1.82992 -1.8299,2.33333 c -1.7418,2.221 -2.8368,2.92731 -2.8368,1.82992 z m 10,-12.82992 c 1.3274,-1.46666 2.7133,-2.66666 3.08,-2.66666 0.3667,0 -0.4193,1.2 -1.7466,2.66666 -1.3274,1.46667 -2.7133,2.66667 -3.08,2.66667 -0.3667,0 0.4193,-1.2 1.7466,-2.66667 z m 5.3334,-6.66666 c 1.3273,-1.46667 2.7133,-2.66667 3.0799,-2.66667 0.3667,0 -0.4193,1.2 -1.7466,2.66667 -1.3273,1.46666 -2.7133,2.66666 -3.08,2.66666 -0.3666,0 0.4193,-1.2 1.7467,-2.66666 z M 1076,534.16326 c 0,-0.27686 1.05,-1.32686 2.3333,-2.33333 l 2.3334,-1.82992 -1.83,2.33333 c -1.7418,2.221 -2.8367,2.92731 -2.8367,1.82992 z" /><path
       style="fill:#000000;stroke-width:1.33333"
       d="m 745.00393,675.66668 c -1.19482,-0.91667 -5.72837,-7.66667 -10.07457,-15 -14.61733,-24.66387 -24.03859,-39.54143 -26.03249,-41.10919 -1.08946,-0.85661 -2.40023,-3.57857 -2.91283,-6.0488 l -0.93199,-4.49133 1.80731,0.56911 c 1.56932,0.49414 27.53864,30.51066 32.58779,37.66644 1.00366,1.42241 2.17286,2.2382 2.59822,1.81284 0.42536,-0.42536 1.32396,-8.18916 1.99688,-17.2529 0.67292,-9.06373 2.47467,-33.57201 4.00388,-54.46284 l 2.7804,-37.98335 2.18527,-2.41469 2.18527,-2.41469 4.06813,0.39804 4.06813,0.39802 9.7816,17.92288 c 20.04271,36.7244 30.54386,54.08478 33.70708,55.72414 l 3.17799,1.64701 -2.88813,0.0196 -2.88812,0.0196 -7.5485,-8.33333 c -4.15165,-4.58333 -12.752,-15.3613 -19.11186,-23.95103 C 771.20352,569.79248 765.55,562.74248 765,562.71554 c -0.55,-0.0269 -1.00591,1.60103 -1.01313,3.6177 -0.007,2.01666 -1.78458,26.76666 -3.94966,55 l -3.93652,51.33333 -2.86473,2.33334 c -3.39505,2.76529 -5.29593,2.91922 -8.23203,0.66666 z"
       id="path216" /><path
       style="fill:#000000;stroke-width:1.33333"
       d="m 474.53501,667.86836 -2.7983,-2.79831 0.77424,-5.53502 c 1.46921,-10.50324 3.75441,-40.50575 3.27486,-42.99583 l -0.48085,-2.49685 -11.31915,-1.50948 c -6.22553,-0.8302 -11.71476,-1.13974 -12.1983,-0.68783 -0.48354,0.45191 -1.29111,12.22164 -1.7946,26.15497 -0.5035,13.93334 -1.41754,25.863 -2.03122,26.51038 -0.61368,0.64737 -2.10866,0.79604 -3.3222,0.33036 l -2.20642,-0.84668 0.80786,-16.33036 c 0.44432,-8.9817 1.13812,-20.98036 1.54176,-26.6637 l 0.73391,-10.33333 -3.09164,-0.012 c -3.90824,-0.0144 -30.34197,-1.83908 -39.86195,-2.9691 -15.88098,-0.52294 -3.34756,-0.11517 -13.55035,-0.0376 -11.15763,0.42606 -7.83277,-1.99154 -11.17277,-2.71475 -0.23244,-3.07638 10.09487,-3.59824 13.17383,-3.40287 2.56665,0.0637 8.12307,-1.42361 12.77173,-2.88081 l 8.45214,-2.64947 10.8812,0.058 c 5.98466,0.032 13.43961,0.5529 16.56656,1.15772 l 5.68533,1.09964 0.57993,-2.82438 c 0.31896,-1.55341 0.80722,-9.16446 1.085,-16.91344 0.27779,-7.74898 0.94988,-14.80877 1.49352,-15.68842 2.4598,-3.97999 3.47087,1.26905 3.47087,18.0193 v 18.08441 l 11.96449,-0.57203 c 6.58047,-0.31463 12.21763,-0.83801 12.52702,-1.1631 0.3094,-0.32509 1.25914,-8.39106 2.11057,-17.9244 1.81173,-20.28586 1.95575,-20.88056 4.79257,-19.79197 l 2.16227,0.82975 0.9869,0.39137 c 0.97123,0.38516 0.48369,0.74119 0.61509,1.15806 1.78371,5.65869 2.17442,3.49816 2.17442,17.66615 v 8.39812 8.39812 l 9.35115,-0.86909 c 22.04204,-2.0486 45.85615,-2.35261 64.64885,-0.82535 11,0.89398 23.75,1.90598 28.33334,2.2489 5.1268,0.38357 8.33333,1.22471 8.33333,2.18599 v 1.5625 l -6,-0.4772 -6,-0.4772 v 3.92762 c 0,2.16018 -1.05,4.85621 -2.33333,5.99116 l -2.33334,2.06356 -32,1.47712 c -17.6,0.81241 -38.71434,1.4768 -46.92076,1.47642 l -14.92077,-6.9e-4 -0.41256,26.10987 -0.41257,26.10985 -2.58818,1.89015 c -3.69473,2.69825 -8.2993,2.33598 -11.54348,-0.90819 z"
       id="path748"
       sodipodi:nodetypes="scsscssssscssccccccsccscsssscsssscsasccsssscccsscsscccsss" /><path
       style="fill:#000000;stroke-width:1.33333"
       d="m 291.77993,955.00946 -3.29355,-3.81754 -2.87785,-6.71383 c -2.55258,-5.955 -5.00313,-10.66696 -9.72153,-24.40608 -4.71839,-13.73913 -11.37263,-41.59226 -11.49111,-43.71785 l -0.30933,-5.54985 3.29497,5.0838 c 1.81224,2.79608 11.59199,14.35487 14.73401,20.17202 3.14202,5.81715 11.86559,17.04715 16.22044,29.38269 l 9.11948,20.71481 0.53013,8.02907 c 0.29759,4.5072 -11.9347,8.1321 -13.25573,3.77274 z"
       id="path572" /><path
       style="fill:#000000;stroke-width:1.33333"
       d="m 97.666667,620.4586 c -1.65,-0.35423 -3,-1.13728 -3,-1.74011 0,-1.54718 3.741906,-2.24777 22.342263,-4.18305 17.26544,-1.7964 19.35734,-3.81348 3.99107,-3.84835 -5.0975,-0.0116 -9,-0.59856 -9,-1.35374 0,-0.73334 0.75,-1.33948 1.66667,-1.347 2.11924,-0.0173 85.69369,-3.58372 112.86154,-4.8161 l 20.52823,-0.93118 1.80511,2.46865 c 0.99281,1.35775 1.80512,4.14013 1.80512,6.18307 v 3.71441 l -3,1.87955 -3,1.87954 L 180,619.21187 c -35.56667,0.46616 -67.96667,1.08229 -72,1.36918 -4.03333,0.28688 -8.683333,0.23179 -10.333333,-0.1224 z"
       id="path570" /><path
       style="fill:#000000;stroke-width:1.33333"
       d="m 276.68169,658.68328 -2.39828,-2.65007 1.50679,-11.68326 c 0.82873,-6.4258 2.75868,-23.50268 4.28876,-37.94864 1.53009,-14.44595 3.23973,-27.94595 3.7992,-30.00001 l 1.01724,-3.73462 0.83776,6 c 0.46077,3.3 1.15621,11.4 1.54541,18 0.3892,6.6 1.37442,22.6824 2.18936,35.73867 l 1.48172,23.73866 -2.34814,2.59467 c -3.03095,3.34916 -8.86326,3.32205 -11.91982,-0.0553 z"
       id="path568" /><path
       style="fill:#000000;stroke-width:1.33333"
       d="m 41.899105,661.4966 c 0.508718,-0.82312 3.43953,-1.56757 6.512918,-1.65433 C 51.485411,659.75549 55.8,659.22648 58,658.66668 l 4,-1.01783 -7.333333,-0.30246 c -4.033334,-0.16636 -10.933334,-0.69543 -15.333334,-1.17572 l -8,-0.87327 20.698443,-1.66841 c 11.384143,-0.91764 37.184143,-2.55742 57.333334,-3.64396 20.14919,-1.08655 44.35269,-2.6257 53.78557,-3.42034 9.43287,-0.79464 18.57373,-1.08764 20.31303,-0.6511 5.3951,1.35409 6.09262,13.08404 0.86653,14.57228 -1.28164,0.36497 -34.06105,1.07842 -72.84316,1.58545 l -70.512916,0.92187 z"
       id="path750" /><path
       id="path768"
       style="fill:#000000;stroke-width:1.33333"
       d="m 2488.3442,436.78596 c -0.5387,-0.82844 -1.2991,-16.12844 -1.6896,-34 -0.3905,-17.87157 -0.9787,-38.49376 -1.3068,-45.82709 -0.3283,-7.33334 -0.083,-14.16455 0.5465,-15.18047 l 1.1432,-1.84712 3.6162,0.90759 3.6161,0.9076 -0.856,2.93953 c -0.7565,2.59755 -2.86,48.19107 -3.7649,81.6062 -0.1788,6.6 -0.7659,11.32219 -1.3047,10.49376 z M 2356.752,384.0619 c -1.2424,-2.60521 -2.0853,-7.48119 -2.0853,-8.29049 v -1.47146 l 11.6666,0.90195 c 6.4167,0.49607 23.5575,1.42231 37.4908,2.80817 13.9334,1.38584 42.387,2.33284 52.3985,3.90478 13.9975,2.19781 3.526,3.21589 3.1655,3.19878 l -63.6757,-1.37699 -33.9958,-2.95081 3.7385,9.01365 c 1.8062,4.35485 -6.3043,-0.70729 -8.7031,-5.73758 z" /><path
       id="path780"
       style="fill:#000000;stroke-width:1.33333"
       d="m 2200.7928,421.47279 -2.2871,-2.52722 0.7278,-14.47278 c 0.4002,-7.96004 1.0508,-24.97278 1.4456,-37.80612 1.2117,-39.38536 2.5956,-48.9173 5.9636,-41.07518 1.1141,2.59408 3.7809,31.86292 7.6176,83.6048 l 0.8301,11.19628 -2.4667,1.80372 c -3.519,2.57316 -9.1596,2.22821 -11.8309,-0.7235 z M 2142,395.07825 c -5.2203,-2.80374 -15.3668,-11.73078 -18.1424,-15.96204 l -2.1861,-3.3326 3.1273,-9.24394 c 1.7201,-5.08416 3.7652,-10.43548 4.5445,-11.8918 l 1.4172,-2.64786 h 7.6203 c 11.4317,0 24.5961,3.21898 33.1283,8.10057 9.3209,5.33288 12.4909,8.38205 12.4909,12.01483 0,3.54721 -15.0245,19.31874 -21.6136,22.68822 -5.9967,3.06659 -14.9631,3.18738 -20.3864,0.27462 z" /><path
       id="path770"
       style="fill:#000000;stroke-width:1.33333"
       d="m 1823.7248,433.66668 c -2.828,-3.26382 -13.0496,-49.22009 -13.056,-58.70001 v -3.03333 l -4.0277,-0.80555 c -2.2154,-0.44305 -4.2971,-1.24138 -4.6263,-1.77406 -0.3293,-0.53267 0.8129,-0.69868 2.538,-0.36888 1.7252,0.32978 3.4832,0.0392 3.9065,-0.64588 0.4234,-0.68502 -0.6993,-9.29152 -2.4949,-19.12556 -1.7956,-9.83404 -3.2716,-19.20896 -3.2801,-20.83316 -0.02,-3.85704 3.882,-5.87243 8.7824,-4.53596 l 3.8688,1.05509 -0.4554,7.63368 c -0.2504,4.19853 0.2802,13.83885 1.179,21.42293 l 1.6341,13.78923 12.0021,0.94995 c 11.4022,0.90244 71.0703,0.22996 134.9735,-1.5212 16.1333,-0.44211 28.9815,-0.43527 28.5515,0.0152 -1.3863,1.45214 -42.7563,11.20724 -57.8848,13.64929 -25.0648,4.04597 -62.8394,2.01924 -104.4843,-5.60595 -6.1331,-1.12296 -11.4505,-1.74212 -11.8168,-1.37593 -0.7144,0.71445 5.8297,48.85216 7.4804,55.02416 l 0.9912,3.70594 3.248,0.76805 3.2481,0.76804 -2.4424,0.93861 c -3.7994,1.46014 -5.6436,1.13176 -7.8328,-1.39472 z m 176.4855,-32.00001 c -0.8647,-8.61666 -3.0602,-29.76666 -4.8787,-47 -3.5441,-33.58466 -4.0277,-42.62666 -2.1715,-40.6 1.0276,1.12204 10.9562,92.67972 10.8728,100.26667 -0.019,1.65 -0.5318,3 -1.1416,3 -0.6098,0 -1.8162,-7.05 -2.681,-15.66667 z" /><path
       id="path772"
       style="fill:#000000;stroke-width:1.33333"
       d="m 1634.7,425.66667 c -1.5597,-2.01666 -12.3217,-19.52648 -23.9155,-38.91069 -11.5936,-19.38421 -22.4542,-36.78421 -24.1348,-38.66667 -3.3062,-3.70361 -6.6497,-10.76616 -6.6497,-14.04648 0,-2.8258 3.2925,-2.56188 5.504,0.44119 13.5813,18.4422 50.1736,66.9046 52.2271,69.169 l 2.7081,2.98635 2.9321,-4.31968 c 1.6128,-2.37583 10.7694,-17.33063 20.348,-33.2329 16.6144,-27.5831 30.4339,-49.08678 31.5458,-49.08678 0.6229,0 -10.1412,24.17192 -20.1876,45.33333 -4.0038,8.43333 -11.7859,25.53333 -17.2935,38 -5.5077,12.46667 -10.9769,23.41667 -12.1539,24.33334 -3.5044,2.72956 -7.8929,1.92654 -10.9301,-2.00001 z m -6.5129,-65.4796 c -3.2323,-3.23232 -2.7707,-5.34309 2.7094,-12.38952 2.2762,-2.92662 3.4591,-5.72332 2.9652,-7.01029 -1.0537,-2.74595 2.583,-8.32551 6.168,-9.46336 3.9184,-1.24365 8.777,2.37355 10.5975,7.88985 l 1.5319,4.64154 2.2537,-0.84395 2.2539,-0.84395 -1.746,2.14858 -1.7462,2.14856 0.844,4.49904 0.8442,4.49902 -2.4314,2.87342 -2.4313,2.87342 -9.5099,0.88546 -9.5098,0.88544 z" /><path
       style="fill:#000000;stroke-width:1.33333"
       d="m 1320.7423,414.36999 c -2.4762,-3.53522 -2.6403,-6.83528 -0.5097,-10.24702 l 1.566,-2.50752 -3.7228,-19.57436 c -5.4687,-28.75438 -3.5936,-40.0286 7.7644,-46.68434 7.5194,-4.40636 13.9251,-5.17816 33.5722,-4.04497 l 16.838,0.97119 -1.2941,1.29409 c -0.7118,0.71176 -6.9182,2.1788 -13.7919,3.26008 -19.1335,3.00983 -23.5405,4.43269 -27.2001,8.78177 -4.2042,4.99647 -4.1464,5.8517 0.7024,10.3811 4.8833,4.56177 5.0848,8.28649 0.6372,11.78497 l -3.3629,2.6452 2.6962,12.10413 c 1.4828,6.65727 2.6961,13.84544 2.6961,15.9737 v 3.86957 l 3.1532,0.79141 c 4.7352,1.18847 46.0607,6.4626 52.1802,6.65946 l 5.3333,0.17156 v -14.66667 -14.66667 h -15.8823 -15.8822 l -0.4996,-1.47878 c -0.6311,-1.86842 8.661,-3.18788 22.4502,-3.18788 h 10.4806 l 0.1446,-11.66667 c 0.08,-6.41667 0.5915,-15.26667 1.1374,-19.66667 l 0.9926,-8 0.203,6.66667 c 0.112,3.66667 0.5901,12.5146 1.0634,19.66207 l 0.8606,12.99538 41.578,-0.21076 c 22.868,-0.11586 42.2776,0.22158 43.1325,0.74996 0.8551,0.5284 1.5453,2.27532 1.5341,3.88204 -0.013,1.80271 -0.402,2.32139 -1.0169,1.35456 l -0.9965,-1.56674 -15.9831,-0.39734 c -8.7907,-0.21852 -27.8581,-0.26349 -42.372,-0.0999 l -26.3889,0.29736 0.8469,10.33333 c 0.4659,5.68333 1.3293,13.63333 1.9191,17.66667 0.5896,4.03333 0.8522,7.56461 0.5836,7.84728 -0.2687,0.28266 -2.0134,-0.48518 -3.8771,-1.70631 l -3.3885,-2.22025 -2.7575,1.47577 c -2.1687,1.16061 -45.8283,3.60739 -69.4731,3.8934 -2.234,0.0271 -4.3754,-1.07635 -5.6666,-2.91991 z"
       id="path786" /><path
       id="path776"
       style="fill:#000000;stroke-width:1.33333"
       d="m 1057.0163,425.23569 c -1.2743,-0.74244 -2.9484,-2.52971 -3.7201,-3.97172 l -1.4032,-2.62184 5.2401,-16.98772 c 2.882,-9.34326 7.4927,-24.78774 10.246,-34.32107 2.7534,-9.53333 5.7974,-18.18985 6.7645,-19.23672 l 1.7584,-1.90339 0.895,2.3322 c 0.4922,1.28272 -0.9157,15.63924 -3.1288,31.90339 -2.213,16.26416 -3.8255,29.78943 -3.5832,30.05617 0.3823,0.42088 50.8078,3.72026 67.0224,4.38534 3.1757,0.13026 4.9757,0.65056 4,1.15624 -2.2716,1.17726 -30.5536,4.88202 -50.611,6.62972 -8.5269,0.74298 -18.6588,1.94928 -22.5153,2.68064 -8.3792,1.58908 -8.0584,1.59205 -10.9648,-0.1012 z m 140.2871,-7.34679 c -0.016,-0.67223 -1.4939,-18.61472 -3.2833,-39.8722 -3.0425,-36.14403 -2.9956,-42.26771 0.308,-40.22593 1.4125,0.87296 5.1778,79.14773 3.8703,80.45532 -0.4758,0.47576 -0.8785,0.31502 -0.895,-0.35719 z M 1126,381.83675 c -19.9004,-3.37173 -21.2817,-3.75837 -21.7293,-6.08232 -0.2374,-1.23264 0.6546,-2.81982 1.9822,-3.52706 2.8419,-1.51395 23.7205,-4.21822 32.609,-4.2236 9.1623,-0.005 33.0758,10.22929 29.3216,12.54952 -1.9111,1.18112 -19.8342,3.39045 -26.1835,3.22756 -2.9333,-0.0752 -10.1333,-0.9501 -16,-1.9441 z" /><path
       id="path766"
       style="fill:#000000;stroke-width:1.33333"
       d="m 859.40923,437.09856 c -0.32048,-0.97087 -1.20446,-23.34807 -1.54022,-48.87875 -0.33576,-25.53069 -2.44687,-45.06308 -2.7054,-45.32161 -0.42308,-0.42308 1.8434,-0.14667 -22.80982,1.8482 -4.95,0.40055 -25.68712,0.0926 -25.68712,-0.53425 0,-0.62689 8.21096,-1.55188 18.24657,-2.05552 10.03561,-0.50365 21.70369,-1.27706 25.92905,-1.7187 l 7.57402,-0.86805 0.45109,-4.13484 0.71136,-2.74668 0.63359,2.6524 0.26484,4.4527 8.52281,-1.0338 c 1.02802,-0.12469 17.87255,-1.2541 28.8773,-1.24025 l 20.1227,0.0253 -9.86094,1.70646 c -6.17728,1.06899 -16.67935,1.79373 -26.21268,2.35032 -5.77778,0.33733 15.47589,-1.52724 -20.08843,0.42017 l 0.098,5.73291 c 0.0564,3.2996 1.77231,21.1513 2.84151,40.21796 1.06921,19.06667 1.36799,38.43644 0.85712,42.42311 l -0.9679,7.55313 -2.21466,1.92986 c -0.9876,0.8606 -2.72229,-1.80925 -3.04278,-2.78011 z m 51.93604,-34.80681 -18.65474,-2.77293 3.3214,-0.87927 c 1.82678,-0.4836 11.18891,-1.2518 20.80475,-1.70712 l 17.48333,-0.82784 2.51667,1.86962 2.51665,1.86961 -1.46781,2.41143 c -1.98232,3.25668 -4.83028,3.2606 -26.52025,0.0365 z"
       sodipodi:nodetypes="ssssssscccccsscsscssscsssscsscccss" /><path
       id="path796"
       style="fill:#000000;stroke-width:1.33333"
       d="m 652,393.68238 c -5.84884,-0.69875 -8.78892,-3.29367 -9.87297,-8.71388 -0.46514,-2.32569 -2.6935,-6.13497 -4.95191,-8.46505 l -4.1062,-4.23654 0.88872,-2.80012 c 0.48889,-1.54036 2.0198,-2.80012 3.4028,-2.80012 1.38275,0 3.99699,-0.67565 5.80941,-1.50145 l 3.29534,-1.50145 10.95228,1.60144 10.95229,1.60144 5.14845,3.25006 5.14846,3.25008 v 4.04528 4.0453 l -4.24935,2.27132 c -2.33713,1.24922 -5.65039,3.6073 -7.36279,5.24017 -3.51073,3.34769 -7.67484,5.80331 -9.30021,5.48443 -0.59821,-0.11734 -3.18765,-0.46427 -5.75432,-0.77091 z m -92,-7.01571 c -1.46667,-1.46666 -2.66667,-3.59236 -2.66667,-4.72376 0,-3.04892 9.07727,-19.57977 12.23211,-22.27624 4.10829,-3.51138 6.7,-2.9035 15.62121,3.66391 l 8.14668,5.99724 -0.0204,7.00276 c -0.0107,3.85152 -0.53817,7.81996 -1.171,8.81877 -1.45956,2.30371 -10.41384,4.05116 -21.14192,4.12592 l -8.33334,0.0581 z" /><path
       id="path778"
       style="fill:#000000;stroke-width:1.33333"
       d="m 422.07845,421.00001 c -0.71961,-4.39788 -4.69324,-73.9101 -5.03328,-88.04886 l -0.18554,-7.71553 2.2051,-2.20511 c 1.21282,-1.21281 2.43987,-1.94082 2.7268,-1.61781 0.28694,0.32303 0.895,13.78731 1.35127,29.92064 0.45627,16.13333 1.23001,39.38333 1.71944,51.66667 l 0.88987,22.33333 h -1.48231 c -0.81527,0 -1.80137,-1.95 -2.19135,-4.33333 z m -38.31654,-6.84028 C 382.79285,413.14758 375.1,402.87879 366.66667,391.34021 L 351.33333,370.36095 322,371.23103 c -16.13333,0.47855 -31.00791,1.2004 -33.05461,1.60414 -6.71884,1.32533 -10.64744,-5.78351 -4.89696,-8.86108 l 2.7151,-1.45308 29.42476,1.48852 c 16.18363,0.81869 29.71072,1.20257 30.06023,0.85306 0.34951,-0.34949 -4.80409,-8.03656 -11.45244,-17.08236 -11.64312,-15.84173 -14.21107,-21.11356 -10.28456,-21.11356 2.27025,0 7.68509,6.2276 21.34656,24.55066 l 10.52473,14.11601 19.8086,0.16667 c 10.89472,0.0917 20.40859,0.31666 21.14192,0.5 0.73334,0.18333 4.18334,0.49352 7.66667,0.68929 l 6.33333,0.35597 L 402,368.06059 c -5.13333,0.55844 -15.70879,1.14178 -23.501,1.2963 -7.79223,0.15453 -14.92951,0.75181 -15.86064,1.32728 l -1.69296,1.0463 13.08835,17.13478 c 7.19858,9.42412 13.27137,17.37026 13.49508,17.65809 0.22369,0.28784 1.41534,-0.31216 2.64809,-1.33333 l 2.24136,-1.85667 -0.99685,5.32317 c -0.54827,2.92776 -1.27779,5.77776 -1.62116,6.33334 -0.99195,1.605 -4.11847,1.17518 -6.03836,-0.83012 z" /><path
       id="path363"
       style="fill:#000000;stroke-width:1.33333"
       d="m 497.36664,913.71393 -2.16919,-3.31059 1.45719,-6.35608 c 2.55605,-11.14916 3.79196,-34.93473 3.17081,-61.02274 l -0.60318,-25.33334 3.96986,-11.33333 c 2.18342,-6.23333 4.41412,-13.13333 4.9571,-15.33333 l 0.98724,-4 0.71857,2 c 0.39522,1.1 1.56166,2.62151 2.59211,3.38113 l 1.87352,1.38112 0.7624,12.77891 0.7624,12.7789 -2.3518,15.17331 c -2.2928,14.79265 -2.81791,30.67519 -2.08562,63.08397 l 0.35951,15.9107 -2.40144,1.75597 c -1.3208,0.96579 -4.07295,1.75599 -6.11588,1.75599 h -3.71441 z m 0.98127,52.77883 c -5.84884,-0.69875 -8.78892,-3.29367 -9.87297,-8.71388 -0.46514,-2.32569 -2.69351,-6.13497 -4.95191,-8.46505 l -4.1062,-4.23654 0.88872,-2.80012 c 0.48888,-1.54036 2.0198,-2.80012 3.4028,-2.80012 1.38275,0 3.99698,-0.67566 5.80941,-1.50145 l 3.29534,-1.50145 10.95228,1.60144 10.95229,1.60144 5.14845,3.25006 5.14846,3.25008 v 4.04528 4.0453 l -4.24935,2.27132 c -2.33713,1.24922 -5.65039,3.6073 -7.36279,5.24017 -3.51073,3.34769 -7.67484,5.80331 -9.30021,5.48443 -0.59821,-0.11734 -3.18765,-0.46427 -5.75432,-0.77091 z" /><path
       id="path774"
       style="fill:#000000;stroke-width:1.33333"
       d="m 164.55896,424.68942 -2.16919,-3.31059 1.45719,-6.35608 c 2.55604,-11.14916 3.79197,-34.93473 3.17081,-61.02274 l -0.60318,-25.33334 3.96986,-11.33333 c 2.18342,-6.23333 4.41411,-13.13333 4.9571,-15.33333 l 0.98724,-4 0.71857,2 c 0.39523,1.1 1.56167,2.6215 2.59211,3.38113 l 1.87352,1.38112 0.7624,12.77891 0.7624,12.7789 -2.3518,15.17331 c -2.29282,14.79265 -2.8179,30.67519 -2.08562,63.08397 l 0.35951,15.9107 -2.40144,1.75597 c -1.3208,0.9658 -4.07295,1.75599 -6.11588,1.75599 h -3.71441 z m -38.55498,-4.68501 -2.40932,-2.66227 1.55418,-11.10976 c 0.8548,-6.11036 1.94217,-17.89095 2.41638,-26.17908 l 0.86221,-15.06935 -21.21372,16.41298 c -11.667539,9.02714 -22.909745,17.80576 -24.982677,19.50802 -2.072932,1.70228 -4.322932,3.09506 -5,3.09506 -3.639682,0 -0.343306,-3.23031 25.171147,-24.66667 2.61853,-2.2 8.04261,-6.85 12.05351,-10.33333 6.49931,-5.64443 9.16644,-7.02458 12.54431,-6.49123 0.55,0.0868 1,-12.32211 1,-27.57544 v -27.73333 l 1.6,-1.6 c 0.88,-0.88 2.53,-1.60611 3.66667,-1.61356 1.14129,-0.008 3.0671,-2.39555 4.30098,-5.33334 1.22887,-2.92588 2.99887,-5.31977 3.93334,-5.31977 H 143.2 l -1.6,1.6 -1.6,1.6 v 60.97143 60.97142 l -2.09524,2.09524 c -2.90967,2.90967 -9.01779,2.61864 -11.90078,-0.56702 z M 56,386.83783 c 0,-0.6392 3.899999,-7.13748 8.666664,-14.44062 l 8.666665,-13.27846 14.437796,-11.48368 c 7.940788,-6.31601 16.002525,-12.19661 17.914975,-13.06798 3.48443,-1.5876 9.40137,-0.58943 6.9432,1.1713 -0.71278,0.51056 -6.99597,8.5304 -13.962633,17.82188 L 86,370.45387 72.903367,379.22694 C 60.578207,387.48322 56,389.54459 56,386.83783 Z" /><path
       style="fill:#000000;stroke-width:1.33333"
       d="m 2475.6878,88.739303 1.0144,-11.505062 -35.3218,-0.131485 c -24.0166,-0.0894 -55.5422,1.668754 -60.3088,1.440744 -4.7667,-0.22801 -31.3058,-0.226034 -43.9366,-0.926882 L 2308,76.000001 v -2 -2 l 5,-0.157894 c 2.75,-0.08684 5.4215,-0.09635 5.9367,-0.02112 0.5152,0.07523 33.049,-0.70064 71.7671,-0.663738 39.2865,0.03744 72.5384,1.047836 73.8101,1.094208 l 19.6479,1.082296 -0.5018,6.614064 c -0.3255,4.290636 -8.2428,11.860874 -7.9722,8.791486 z"
       id="path850"
       sodipodi:nodetypes="scssscccsssscss" /><path
       id="path808"
       style="fill:#000000;stroke-width:1.33333"
       d="m 2046.9337,203.65516 -1.5134,-1.82357 17.4718,-21.91579 c 9.6096,-12.05369 22.1359,-27.9158 27.8364,-35.24913 12.1892,-15.68073 19.2587,-22.84467 20.5238,-20.79791 2.076,3.35911 -5.8068,14.68814 -31.1704,44.79791 -14.8259,17.6 -28.0087,33.08272 -29.2954,34.40604 l -2.3393,2.40603 z m 69.929,-26.00477 c -0.675,-1.09193 1.099,-43.07781 4.4638,-105.650389 0.7295,-13.566667 1.3295,-25.716667 1.3334,-27 0,-1.283333 0.9837,-2.333334 2.1778,-2.333334 h 2.1712 l -0.9068,17.666668 c -0.4986,9.716666 -1.7977,31.766667 -2.8866,49.000005 -4.5194,71.52064 -4.5002,71.31472 -6.3528,68.31705 z m 17.804,-80.53966 c 0,-4.984226 12.3176,-21.806426 37.008,-50.542085 27.4414,-31.937313 37.053,-42.2935444 38.186,-41.1441744 1.1214,1.1377683 -3.151,11.2427014 -7.1556,16.9241804 -8.5134,12.078024 -50.2335,63.796739 -54.5614,67.637485 -8.5736,7.608637 -13.477,10.200814 -13.477,7.124594 z" /><path
       id="path816"
       style="fill:#000000;stroke-width:1.33333"
       d="m 1874.9849,136.15566 c -11.9084,-24.1144 -21.6516,-44.514404 -21.6516,-45.333344 0,-0.81894 0.9,-1.488981 2,-1.488981 1.1,0 2,0.546636 2,1.214747 0,1.02732 38.9659,85.366668 40.846,88.408798 0.3547,0.57372 0.1526,1.04312 -0.449,1.04312 -0.6015,0 -10.837,-19.72996 -22.7454,-43.84434 z m 23.081,33.38512 c -1.5766,-4.96715 -2.8267,-54.1083 -1.9218,-75.540778 0.4955,-11.733334 1.3346,-31.533334 1.8648,-44.000001 l 0.9639,-22.666667 1.9273,-3.075698 1.9272,-3.075697 4.7536,0.409031 4.7536,0.40903 13.5726,20.000001 c 26.206,38.616189 42.8009,61.275449 46.0978,62.943439 l 3.3284,1.68392 -3.1154,0.0196 -3.1154,0.0196 -8.7008,-8.33333 c -4.7854,-4.583334 -16.8192,-17.483334 -26.7418,-28.666667 -9.9227,-11.183334 -18.5554,-20.333334 -19.1839,-20.333334 -0.6284,0 -1.1427,0.919085 -1.1427,2.042411 0,7.279346 -4.368,58.73511 -6.1084,71.95759 -2.4338,18.49053 -7.1778,47.73069 -7.8537,48.40652 -0.2536,0.25361 -0.8409,-0.73597 -1.3053,-2.19908 z" /><path
       style="fill:#000000;stroke-width:1.33333"
       d="m 1703.6333,148.42204 c -1.312,-2.25414 -2.2458,-16.69396 -2.9592,-45.75537 -0.4049,-16.500002 -1.0769,-34.959245 -1.4933,-41.020541 l -0.7569,-11.020537 -9.5454,0.644505 c -5.2498,0.354477 -12.3788,0.663719 -15.8421,0.687204 l -6.2968,0.0427 0.8323,41.796446 0.8322,41.796453 -1.6241,1.00373 c -0.8932,0.55205 -1.9501,0.67763 -2.3488,0.27904 -0.7172,-0.71724 -2.0248,-22.2037 -3.7856,-62.209002 -0.5003,-11.366667 -1.1371,-21.038054 -1.4151,-21.491971 -0.2778,-0.453917 -7.5685,-0.527063 -16.2012,-0.162544 -19.6877,0.831311 -18.7297,-1.208195 1.4148,-3.012152 l 14.8892,-1.333333 -0.4714,-14.137693 -0.4714,-14.137691 2.3071,-0.885313 c 1.2689,-0.486921 3.1311,-0.201493 4.138,0.634285 l 1.8311,1.519596 v 13.342297 13.342296 l 8,-0.838889 16,-1.677776 8,-0.83889 v -9.938889 -9.93889 l 1.6666,0.5511 1.6667,0.551099 0.3944,9.689241 0.3943,9.689241 2.939,-0.728598 c 1.6164,-0.400729 12.839,-1.125449 24.939,-1.610489 l 22,-0.881894 4.5638,3.147929 c 2.5102,1.73136 4.7608,3.747928 5.0015,4.481261 l 0.4376,1.333333 -30.0015,-0.424986 -30.0014,-0.424987 0.1493,21.091654 c 0.083,11.600409 0.5387,33.691655 1.0147,49.091655 0.8885,28.75312 0.8825,29.61053 -0.1974,27.75537 z"
       id="path832" /><path
       id="path838"
       style="fill:#000000;stroke-width:1.33333"
       d="m 1378.8145,119.21842 -2.9997,-3.81342 0.7343,-4.03583 c 0.8342,-4.58501 3.6428,-28.960102 6.8406,-59.369169 1.1954,-11.366667 2.628,-22.766667 3.1836,-25.333334 L 1387.5835,22 l 0.8942,10.000001 c 0.7066,7.90206 3.5223,67.243722 3.5223,74.232859 0,0.88206 2.55,1.93734 5.6667,2.34506 3.1166,0.40772 12.5666,1.63507 21,2.72746 35.2912,4.57132 64.5349,8.78511 65.1353,9.38549 0.3533,0.35336 -17.0653,0.64247 -38.7083,0.64247 -21.6429,0 -44.7346,0.38216 -51.3152,0.84926 l -11.9644,0.84925 z m 120.4836,-22.430285 c -1.0445,-2.49986 -3.4193,-15.24986 -5.2773,-28.333334 -1.8581,-13.083473 -3.6643,-25.058228 -4.0137,-26.610567 l -0.6355,-2.822435 -4.3524,-0.77018 c -53.3552,-9.441278 -74.8377,-13.831655 -69.6859,-14.241692 10.4422,-0.831089 82.923,0.39016 84.8658,1.429927 1.3236,0.708361 3.0108,2.417139 3.7494,3.797285 l 1.343,2.509358 -1.2622,16.536028 c -0.6942,9.094815 -1.3618,24.751854 -1.4837,34.793419 -0.1219,10.041566 -0.4751,18.257396 -0.7849,18.257396 -0.3099,0 -1.418,-2.045345 -2.4626,-4.545205 z" /><path
       style="fill:#000000;stroke-width:1.33333"
       d="m 1229.3372,141.66667 c 0.01,-3.26843 -1.1001,-43.437579 -1.2304,-44.708747 -0.059,-0.573144 -6.4068,-0.634774 -14.1068,-0.136957 -14.7543,0.953885 -16.2994,0.34392 -11,-4.342388 5.2048,-4.602682 10.0964,-7.139414 17.3248,-8.984468 l 7.0085,-1.788944 0.3904,-8.682159 0.3904,-8.682159 -3.0571,-0.818884 c -1.6813,-0.450385 -10.857,-0.886884 -20.3903,-0.969996 -9.5334,-0.08311 -18.8334,-0.607111 -20.6667,-1.164441 l -3.3333,-1.013328 4,-1.663326 c 2.2,-0.914829 12.7,-3.869053 23.3333,-6.564943 l 19.3333,-4.901618 0.6667,-13.288822 0.6667,-13.288823 h 2 2 l 0.3796,12.833052 0.3796,12.833053 4.9537,0.81894 c 2.7246,0.450417 11.2537,0.878108 18.9537,0.950422 7.7,0.07232 17,0.542099 20.6667,1.043963 l 6.6667,0.91248 -6,1.669925 c -3.3,0.918459 -14.6157,3.72099 -25.1461,6.227844 -10.5303,2.506857 -19.53,4.941958 -19.9994,5.411337 -0.4694,0.469378 -0.8537,4.40191 -0.854,8.738958 l -5e-4,7.885543 4.6666,-0.04261 c 2.5667,-0.02344 9.4667,-0.909872 15.3334,-1.969859 5.8666,-1.059988 16.6096,-1.939055 23.8733,-1.953483 l 13.2066,-0.02623 -2.3157,2.558809 c -1.2736,1.407344 -6.4644,4.73893 -11.5352,7.403526 l -9.2195,4.844719 -15.6714,1.982336 c -8.6193,1.090286 -16.4215,2.239867 -17.3381,2.554627 L 1232,95.916309 v 24.041851 c 0,15.139 -0.4937,24.04184 -1.3333,24.04184 -0.7334,0 -1.3316,-1.05 -1.3295,-2.33333 z"
       id="path834" /><path
       id="path836"
       style="fill:#000000;stroke-width:1.33333"
       d="m 960.48557,140.17594 -4.18109,-2.61824 -11.99465,-21.77885 C 930.72831,91.118695 920,70.044911 920,68.026644 c 0,-3.529843 3.53889,0.449676 21.61537,24.306691 10.69622,14.116665 20.90532,27.024355 22.68692,28.683745 l 3.23927,3.01708 5.77693,-12.35041 c 16.9345,-36.203969 23.74402,-49.853117 25.64659,-51.40651 l 2.11002,-1.722762 -1.24069,5.722762 c -0.68237,3.147519 -5.5638,20.950362 -10.84764,39.56187 l -9.60696,33.83912 -2.88221,1.88849 c -1.58521,1.03867 -4.89568,2.18976 -7.35657,2.55798 l -4.47436,0.66948 z M 1077.7712,113 c -4.2726,-4.53212 -24.8131,-31.70053 -32.3208,-42.750068 -2.398,-3.529205 -6.1113,-10.279205 -8.2518,-15 -2.1405,-4.720795 -4.1676,-8.583264 -4.5046,-8.583264 -0.337,0 -3.7307,4.65 -7.5417,10.333333 -12.628,18.83263 -25.39911,36.530969 -25.95767,35.972409 -0.71403,-0.714027 4.61237,-13.373295 17.80027,-42.305742 5.8497,-12.833334 11.0589,-24.681939 11.576,-26.330236 1.7612,-5.613806 12.2501,-5.84895 15.007,-0.336432 0.9169,1.833334 3.1189,7.833334 4.8934,13.333334 3.6191,11.217452 15.2735,37.945045 27.0348,62.000001 4.3026,8.800005 8.0239,16.450005 8.2696,17.000005 1.1133,2.49304 -2.296,0.60042 -6.0045,-3.33334 z" /><path
       id="path1281"
       style="fill:#000000;stroke-width:1.33333"
       d="m 695.32017,165.52056 c -0.03,-2.2612 18.5467,-19.327 40.6124,-37.3088 17.1015,-13.9364 19.351,-16.2284 18.8078,-19.163 -0.3394,-1.8334 -0.9785,-13.833397 -1.4202,-26.666697 -1.202,-34.919298 -0.4784,-32.517998 -12.8412,-42.612098 -17.8832,-14.6014 -19.5979,-17.4009 -5.1792,-8.4557 6.9667,4.3221 13.4777,8.3536 14.4689,8.9589 1.4736,0.8999 1.7167,-1.0321 1.3333,-10.5962 -0.3411,-8.5093 -0.015,-11.854 1.1978,-12.2736 1.2571,-0.4351 1.6667,2.5464 1.6667,12.1331 v 12.7099 l 4.3333,3.2888 c 5.9081,4.484 51.8417,33.953698 61.3412,39.354798 10.6635,6.0629 12.7222,10.4167 7.5503,15.968097 -2.5862,2.7759 -3.5174,2.9186 -13.6685,2.095 -9.9142,-0.8045 -11.672,-0.5613 -19.5581,2.7058 -4.7657,1.9743 -14.8149,6.9826 -22.3316,11.1296 l -13.6666,7.54 -0.1961,16.6935 -0.1961,16.6934 -1.0128,-15.0978 c -0.5571,-8.3038 -1.2773,-15.3622 -1.6004,-15.6853 -0.3232,-0.3232 -2.0291,0.4928 -3.7911,1.8131 -1.7619,1.3204 -14.6035,9.8594 -28.5369,18.9755 -13.9333,9.1161 -25.7741,17.1942 -26.3129,17.9513 -0.6486,0.9114 -0.9865,0.8602 -1,-0.1516 z m 73.6388,-63.3361 c 6.0541,-4.508697 14.7575,-9.965297 19.3408,-12.125697 4.5833,-2.1604 8.3333,-4.1514 8.3333,-4.4244 0,-0.703 -39.735,-32.585598 -40.6111,-32.585598 -0.3972,0 -0.7222,4.7051 -0.7222,10.4558 0,13.027598 1.5881,46.877495 2.1992,46.877495 0.2489,0 5.4059,-3.6889 11.46,-8.1976 z m -10.8873,60.7532 c 0.064,-1.5533 0.38,-1.8692 0.8056,-0.8056 0.3851,0.9625 0.3378,2.1125 -0.1052,2.5556 -0.4431,0.443 -0.7582,-0.3445 -0.7003,-1.75 z" /><path
       id="path830"
       style="fill:#000000;stroke-width:1.33333"
       d="m 591.33537,144.71603 c -11.62245,-6.05804 -20.75141,-12.658 -49.89382,-36.07171 -13.29791,-10.683871 -24.75363,-19.06948 -25.45714,-18.634688 -0.7035,0.434791 -7.35328,7.695009 -14.77728,16.133818 -7.424,8.43881 -13.79036,15.05111 -14.14746,14.694 -0.65864,-0.65865 21.33796,-44.103417 23.88233,-47.169202 0.76148,-0.917536 3.16568,-1.668247 5.34264,-1.668247 h 3.95812 l 4.96811,4.333334 c 2.73246,2.383333 16.92784,14.768452 31.54529,27.522485 C 583.87076,127.5139 604,146.45115 604,148.30206 c 0,2.0645 -3.99323,0.93381 -12.66463,-3.58603 z m 9.259,-28.79974 c -3.6269,-2.24605 -21.70428,-19.408155 -40.17193,-38.138023 l -33.57756,-34.054303 -2.88613,2.021532 c -1.58739,1.111842 -14.97748,13.392784 -29.75579,27.29098 -14.77829,13.898196 -29.75612,27.750614 -33.28405,30.783154 -6.3761,5.48076 -9.06132,7.03371 -6.65198,3.84704 5.40747,-7.15204 20.44132,-25.491932 30.8767,-37.666669 6.91421,-8.066666 17.96896,-21.416667 24.56612,-29.666667 l 11.99482,-15 h 4.98752 4.98752 l 5.48031,7.258615 c 10.01392,13.263348 60.47487,74.639511 66.65628,81.074721 7.04411,7.33332 6.07735,8.00834 -3.22183,2.24962 z" /><path
       id="path1269"
       style="fill:#000000;stroke-width:1.33333"
       d="m 329.1546,186.76905 c -0.8981,-3.9707 -1.9478,-20.7398 -2.3327,-37.2646 l -0.7,-30.0452 -4.1852,0.4886 c -7.4182,0.8661 -8.5295,-1.9194 -9.0268,-22.6244 -0.2407,-10.0243 -0.8351,-18.6217 -1.3208,-19.1053 -0.4858,-0.4837 -5.4669,2.8369 -11.0693,7.3791 -5.6023,4.5421 -10.4823,7.962 -10.8445,7.5999 -0.3621,-0.3622 4.5028,-6.8811 10.811,-14.4864 l 11.4695,-13.8278 -0.8918,-30.6667 c -0.6125,-21.060102 -0.461,-30.2490016 0.4835,-29.3333016 1.1121,1.0781 8.2581,41.9374016 8.2581,47.2182016 0,2.5909 2.042,1.5317 4.2766,-2.2182 3.9223,-6.5823 7.6697,-9.6667 11.7446,-9.6667 6.8514,0 8.0609,3.732 6.7039,20.6863 -0.6447,8.0544 -0.9915,14.8251 -0.7708,15.0458 0.2208,0.2208 6.8413,-6.8587 14.7123,-15.7321 20.8185,-23.4699 20.4794,-21.8839 -3.4214,16 l -13.0386,20.6667 -0.7817,13.3333 c -0.43,7.3333 -1.108,19.0333 -1.5068,26 -1.2031,21.0189 -4.5923,53.5835 -5.8016,55.7444 -0.8151,1.4566 -1.5947,-0.01 -2.7675,-5.1916 z m -1.349,-107.8861 c 0,-14.352 -0.7062,-16.6355 -3.9397,-12.7394 -1.2446,1.4996 -1.2297,4.7538 0.067,14.6667 0.9167,7.0066 2.163,12.7393 2.7696,12.7393 0.6066,0 1.1029,-6.6 1.1029,-14.6666 z" /><path
       id="a"
       style="fill:#000000;stroke-width:1.33333"
       d="m 155.65912,169.57784 c -7.71069,-5.78676 -17.23837,-14.18838 -21.17261,-18.67028 -3.93425,-4.4819 -10.93407,-12.4209 -15.55516,-17.64223 l -8.40198,-9.49332 1.56524,-1.88601 c 2.01211,-2.42444 3.35891,-2.37804 6.23872,0.21493 1.28334,1.15551 9.4343,6.97148 18.11327,12.92438 l 15.77992,10.82347 3.99932,5.8128 c 4.89213,7.11046 14.93507,26.95529 14.07607,27.81429 -0.34283,0.34284 -6.93208,-4.11128 -14.64279,-9.89803 z m -98.325787,0.99403 c 0,-5.35955 13.945694,-25.07367 23.010068,-32.52781 20.652609,-16.98384 23.923979,-19.37739 26.483899,-19.37739 h 2.72353 l -3.07672,5 c -1.69219,2.75 -7.480049,11.3 -12.861907,19 l -9.785196,14 -9.58017,6.06345 C 68.977743,166.06502 63.016667,169.50215 61,170.3682 l -3.666667,1.57463 z m 46.311137,-54.9052 C 102.43528,114.75 98.17932,104.7 94.186792,93.333335 90.194265,81.966668 83.251949,62.233649 78.759423,49.482181 74.266897,36.730714 70.824496,26.064393 71.109643,25.779247 c 0.285146,-0.285147 4.89224,8.047872 10.237986,18.517819 16.802879,32.909393 25.575061,49.667525 26.552701,50.725565 0.51971,0.562446 6.10058,-5.437555 12.40192,-13.333333 14.45023,-18.106565 28.6613,-33.48877 37.86728,-40.987909 l 7.15147,-5.82555 -3.66049,-0.757369 C 159.64723,33.701917 143.6,31.20939 126,28.579522 87.676021,22.852986 66.677637,19.145031 65.519097,17.899635 65.050261,17.395648 70.366667,17.352632 77.333333,17.804046 84.3,18.255458 112.5,19.571922 140,20.729519 c 27.5,1.157599 51.33345,2.646615 52.96321,3.308925 6.60168,2.682809 4.79007,11.938954 -3.11653,15.923445 -17.92732,9.034384 -33.94236,23.680546 -61.24157,56.006994 -18.58117,22.002957 -20.21697,23.293857 -24.96064,19.697787 z" /><path
       style="fill:#000000"
       d="m 97.668708,918.2822 -3.926378,20.1227 15.21472,22.57668 29.93866,10e-6 c -0.0178,0.0102 13.399,-4.05849 22.08588,-6.87117 3.76453,-1.21889 15.70553,-13.74233 16.19632,-16.68712 0.4908,-2.94478 -6.87116,-22.08588 -6.87116,-22.08588 0,0 -21.23052,-14.04775 -19.14111,-12.76074 12.45512,7.67195 -25.01094,-7.07511 -31.41104,4.41718 z"
       id="path692"
       sodipodi:nodetypes="ccccsscscc" /><path
       id="path755"
       style="fill:#000000;stroke-width:0.723973"
       d="m 809.99874,1003.4227 c 58.95116,44.2045 63.86375,48.3166 63.86375,48.3166 l -36.35321,63.7368 -7.36889,9.7661 -5.89512,-4.1121 8.35141,-14.9062 13.26402,-36.4944 4.42133,-17.9902 c 0,0 -14.24653,-13.3642 -15.72031,-15.4202 -1.47378,-2.056 -34.56442,-31.3517 -34.56442,-31.3517 l -5.14588,-8.15909 z m 16.26895,139.06 -3.31607,10.9038 c 0,0 6.63213,5.0883 9.94819,5.8153 3.31607,0.7269 14.09328,-5.8153 14.09328,-5.8153 l 1.65803,-12.3576 -10.77721,-1.4538 z"
       inkscape:export-filename="glyhps/question.svg"
       inkscape:export-xdpi="96"
       inkscape:export-ydpi="96" /></g></svg>
